<svg width="4033" height="2307" xmlns="http://www.w3.org/2000/svg" xmlns:xlink="http://www.w3.org/1999/xlink" xml:space="preserve" overflow="hidden"><defs><clipPath id="clip0"><rect x="127" y="91" width="4033" height="2307"/></clipPath></defs><g clip-path="url(#clip0)" transform="translate(-127 -91)"><path d="M132 903.334C132 876.64 153.64 855 180.334 855L582.666 855C609.36 855 631 876.64 631 903.334L631 1096.67C631 1123.36 609.36 1145 582.666 1145L180.334 1145C153.64 1145 132 1123.36 132 1096.67Z" stroke="#000000" stroke-width="10.3125" stroke-miterlimit="8" fill="none" fill-rule="evenodd"/><text font-family="DengXian,DengXian_MSFontService,sans-serif" font-weight="400" font-size="92" transform="matrix(1 0 0 1 244.151 976)">处理器</text><text font-family="DengXian,DengXian_MSFontService,sans-serif" font-weight="400" font-size="92" transform="matrix(1 0 0 1 198.318 1086)">体系结构</text><path d="M819 1148.5C819 1130.55 833.551 1116 851.501 1116L1285.5 1116C1303.45 1116 1318 1130.55 1318 1148.5L1318 1278.5C1318 1296.45 1303.45 1311 1285.5 1311L851.501 1311C833.551 1311 819 1296.45 819 1278.5Z" stroke="#000000" stroke-width="10.3125" stroke-miterlimit="8" fill="none" fill-rule="evenodd"/><text font-family="DengXian,DengXian_MSFontService,sans-serif" font-weight="400" font-size="92" transform="matrix(1 0 0 1 885.007 1245)">内存系统</text><path d="M1604.5 1155C1604.5 1138.71 1617.71 1125.5 1634 1125.5L2074 1125.5C2090.29 1125.5 2103.5 1138.71 2103.5 1155L2103.5 1273C2103.5 1289.29 2090.29 1302.5 2074 1302.5L1634 1302.5C1617.71 1302.5 1604.5 1289.29 1604.5 1273Z" stroke="#000000" stroke-width="6.875" stroke-miterlimit="8" fill="none" fill-rule="evenodd"/><text font-family="DengXian,DengXian_MSFontService,sans-serif" font-weight="400" font-size="83" transform="matrix(1 0 0 1 1744.95 1241)">Cache</text><path d="M1551.5 723.834C1551.5 707.633 1564.63 694.5 1580.83 694.5L2022.17 694.5C2038.37 694.5 2051.5 707.633 2051.5 723.834L2051.5 841.166C2051.5 857.367 2038.37 870.5 2022.17 870.5L1580.83 870.5C1564.63 870.5 1551.5 857.367 1551.5 841.166Z" stroke="#000000" stroke-width="6.875" stroke-miterlimit="8" fill="none" fill-rule="evenodd"/><text font-family="DengXian,DengXian_MSFontService,sans-serif" font-weight="400" font-size="83" transform="matrix(1 0 0 1 1686.52 809)">DRAM</text><path d="M819 689.5C819 671.551 833.551 657 851.501 657L1285.5 657C1303.45 657 1318 671.551 1318 689.5L1318 819.499C1318 837.449 1303.45 852 1285.5 852L851.501 852C833.551 852 819 837.449 819 819.499Z" stroke="#000000" stroke-width="10.3125" stroke-miterlimit="8" fill="none" fill-rule="evenodd"/><text font-family="DengXian,DengXian_MSFontService,sans-serif" font-weight="400" font-size="92" transform="matrix(1 0 0 1 976.674 786)">核心</text><path d="M631 1000C677.807 1000 724.615 1053.51 724.615 1107.01 724.615 1160.52 771.422 1214.03 818.229 1214.03" stroke="#000000" stroke-width="13.75" stroke-miterlimit="8" fill="none" fill-rule="evenodd"/><path d="M0 0C46.8075 0 93.6148 61.2802 93.6148 122.56 93.6148 183.84 140.422 245.121 187.23 245.121" stroke="#000000" stroke-width="13.75" stroke-miterlimit="8" fill="none" fill-rule="evenodd" transform="matrix(1 0 0 -1 631 1000.12)"/><path d="M0 0C58.2534 0 116.507 107.963 116.507 215.926 116.507 323.889 174.76 431.852 233.013 431.852" stroke="#000000" stroke-width="10.3125" stroke-miterlimit="8" fill="none" fill-rule="evenodd" transform="matrix(1 0 0 -1 1318 1213.85)"/><path d="M0 0C71.4285 0 142.857 0.0685696 142.857 0.137139 142.857 0.205348 214.286 0.273917 285.714 0.273917" stroke="#000000" stroke-width="10.3125" stroke-miterlimit="8" fill="none" fill-rule="evenodd" transform="matrix(1 0 0 -1 1318 1213.27)"/><path d="M2683.5 957.667C2683.5 942.663 2695.66 930.5 2710.67 930.5L3156.33 930.5C3171.34 930.5 3183.5 942.663 3183.5 957.667L3183.5 1066.33C3183.5 1081.34 3171.34 1093.5 3156.33 1093.5L2710.67 1093.5C2695.66 1093.5 2683.5 1081.34 2683.5 1066.33Z" stroke="#000000" stroke-width="6.875" stroke-miterlimit="8" fill="none" fill-rule="evenodd"/><text font-family="DengXian,DengXian_MSFontService,sans-serif" font-weight="400" font-size="83" transform="matrix(1 0 0 1 2850.46 1039)">结构</text><path d="M2683.5 1632.67C2683.5 1617.66 2695.66 1605.5 2710.67 1605.5L3156.33 1605.5C3171.34 1605.5 3183.5 1617.66 3183.5 1632.67L3183.5 1741.33C3183.5 1756.34 3171.34 1768.5 3156.33 1768.5L2710.67 1768.5C2695.66 1768.5 2683.5 1756.34 2683.5 1741.33Z" stroke="#000000" stroke-width="6.875" stroke-miterlimit="8" fill="none" fill-rule="evenodd"/><text font-family="DengXian,DengXian_MSFontService,sans-serif" font-weight="400" font-size="83" transform="matrix(1 0 0 1 2767.96 1714)">内容管理</text><path d="M2103.5 1213.5C2285.82 1213.5 2468.14 1331.81 2468.14 1450.11 2468.14 1568.42 2575.81 1686.72 2683.48 1686.72" stroke="#000000" stroke-width="6.875" stroke-miterlimit="8" fill="none" fill-rule="evenodd"/><path d="M0 0C164.64 0 329.279 50.453 329.279 100.906 329.279 151.358 454.632 201.811 579.983 201.811" stroke="#000000" stroke-width="6.875" stroke-miterlimit="8" fill="none" fill-rule="evenodd" transform="matrix(1 0 0 -1 2103.5 1214.31)"/><path d="M0 0C107.08 0 214.159 20.5771 214.159 41.1542 214.159 61.7313 321.239 82.3084 428.319 82.3084" stroke="#000000" stroke-width="4.58333" stroke-miterlimit="8" fill="none" fill-rule="evenodd" transform="matrix(1 0 0 -1 3183.5 1686.81)"/><path d="M0 0C107.08 0 214.16 58.917 214.16 117.834 214.16 176.751 321.24 235.669 428.32 235.669" stroke="#000000" stroke-width="4.58333" stroke-miterlimit="8" fill="none" fill-rule="evenodd" transform="matrix(1 0 0 -1 3183.5 1687.17)"/><path d="M3183.5 1687.5C3290.58 1687.5 3397.66 1705.61 3397.66 1723.73 3397.66 1741.84 3504.74 1759.95 3611.82 1759.95" stroke="#000000" stroke-width="4.58333" stroke-miterlimit="8" fill="none" fill-rule="evenodd"/><path d="M3183.5 1687.5C3290.58 1687.5 3397.66 1744.01 3397.66 1800.51 3397.66 1857.02 3504.74 1913.53 3611.82 1913.53" stroke="#000000" stroke-width="4.58333" stroke-miterlimit="8" fill="none" fill-rule="evenodd"/><path d="M3183.5 1687.5C3269.95 1687.5 3356.41 1782.4 3356.41 1877.3 3356.41 1972.2 3484.11 2067.1 3611.82 2067.1" stroke="#000000" stroke-width="4.58333" stroke-miterlimit="8" fill="none" fill-rule="evenodd"/><path d="M0 0C100.893 0 201.785 59.878 201.785 119.756 201.785 179.634 302.678 239.512 403.571 239.512" stroke="#000000" stroke-width="4.58333" stroke-miterlimit="8" fill="none" fill-rule="evenodd" transform="matrix(1 0 0 -1 3207.5 446.012)"/><path d="M3611.5 706.167C3611.5 694.201 3621.2 684.5 3633.17 684.5L3961.83 684.5C3973.8 684.5 3983.5 694.201 3983.5 706.167L3983.5 792.833C3983.5 804.799 3973.8 814.5 3961.83 814.5L3633.17 814.5C3621.2 814.5 3611.5 804.799 3611.5 792.833Z" stroke="#000000" stroke-width="4.58333" stroke-miterlimit="8" fill="none" fill-rule="evenodd"/><text font-family="DengXian,DengXian_MSFontService,sans-serif" font-weight="400" font-size="73" transform="matrix(1 0 0 1 3691.44 773)">ICache</text><path d="M3611.5 866.167C3611.5 854.201 3621.2 844.5 3633.17 844.5L3961.83 844.5C3973.8 844.5 3983.5 854.201 3983.5 866.167L3983.5 952.833C3983.5 964.799 3973.8 974.5 3961.83 974.5L3633.17 974.5C3621.2 974.5 3611.5 964.799 3611.5 952.833Z" stroke="#000000" stroke-width="4.58333" stroke-miterlimit="8" fill="none" fill-rule="evenodd"/><text font-family="DengXian,DengXian_MSFontService,sans-serif" font-weight="400" font-size="73" transform="matrix(1 0 0 1 3675.4 933)">DCache</text><path d="M0 0C107.08 0 214.159 65.6667 214.159 131.333 214.159 197 321.239 262.667 428.319 262.667" stroke="#000000" stroke-width="4.58333" stroke-miterlimit="8" fill="none" fill-rule="evenodd" transform="matrix(1 0 0 -1 3183.5 1012.17)"/><path d="M0 0C107.08 0 214.159 25.709 214.159 51.4176 214.159 77.1266 321.239 102.835 428.319 102.835" stroke="#000000" stroke-width="4.58333" stroke-miterlimit="8" fill="none" fill-rule="evenodd" transform="matrix(1 0 0 -1 3183.5 1012.34)"/><path d="M0 0C139.428 0 278.857 192.088 278.857 384.175 278.857 576.263 418.286 768.35 557.714 768.35" stroke="#000000" stroke-width="6.875" stroke-miterlimit="8" fill="none" fill-rule="evenodd" transform="matrix(1 0 0 -1 2103.5 1213.85)"/><path d="M3611.5 1023.17C3611.5 1011.2 3621.2 1001.5 3633.17 1001.5L3961.83 1001.5C3973.8 1001.5 3983.5 1011.2 3983.5 1023.17L3983.5 1109.83C3983.5 1121.8 3973.8 1131.5 3961.83 1131.5L3633.17 1131.5C3621.2 1131.5 3611.5 1121.8 3611.5 1109.83Z" stroke="#000000" stroke-width="4.58333" stroke-miterlimit="8" fill="none" fill-rule="evenodd"/><text font-family="DengXian,DengXian_MSFontService,sans-serif" font-weight="400" font-size="73" transform="matrix(1 0 0 1 3731.55 1090)">ITLB</text><path d="M3611.5 1179.17C3611.5 1167.2 3621.2 1157.5 3633.17 1157.5L3961.83 1157.5C3973.8 1157.5 3983.5 1167.2 3983.5 1179.17L3983.5 1265.83C3983.5 1277.8 3973.8 1287.5 3961.83 1287.5L3633.17 1287.5C3621.2 1287.5 3611.5 1277.8 3611.5 1265.83Z" stroke="#000000" stroke-width="4.58333" stroke-miterlimit="8" fill="none" fill-rule="evenodd"/><text font-family="DengXian,DengXian_MSFontService,sans-serif" font-weight="400" font-size="73" transform="matrix(1 0 0 1 3715.51 1246)">DTLB</text><path d="M3183.5 1012.5C3290.58 1012.5 3397.66 1026.11 3397.66 1039.72 3397.66 1053.33 3504.74 1066.94 3611.82 1066.94" stroke="#000000" stroke-width="4.58333" stroke-miterlimit="8" fill="none" fill-rule="evenodd"/><path d="M3183.5 1012.5C3290.58 1012.5 3397.66 1065.09 3397.66 1117.68 3397.66 1170.27 3504.74 1222.86 3611.82 1222.86" stroke="#000000" stroke-width="4.58333" stroke-miterlimit="8" fill="none" fill-rule="evenodd"/><path d="M3611.5 163.167C3611.5 151.201 3621.2 141.5 3633.17 141.5L4033.83 141.5C4045.8 141.5 4055.5 151.201 4055.5 163.167L4055.5 249.833C4055.5 261.799 4045.8 271.5 4033.83 271.5L3633.17 271.5C3621.2 271.5 3611.5 261.799 3611.5 249.833Z" stroke="#000000" stroke-width="4.58333" stroke-miterlimit="8" fill="#FFFFFF" fill-rule="evenodd"/><text font-family="DengXian,DengXian_MSFontService,sans-serif" font-weight="400" font-size="73" transform="matrix(1 0 0 1 3699.36 230)">Inclusive</text><path d="M3611.5 316.167C3611.5 304.201 3621.2 294.5 3633.17 294.5L4135.83 294.5C4147.8 294.5 4157.5 304.201 4157.5 316.167L4157.5 402.833C4157.5 414.799 4147.8 424.5 4135.83 424.5L3633.17 424.5C3621.2 424.5 3611.5 414.799 3611.5 402.833Z" stroke="#000000" stroke-width="4.58333" stroke-miterlimit="8" fill="#FFFFFF" fill-rule="evenodd"/><text font-family="DengXian,DengXian_MSFontService,sans-serif" font-weight="400" font-size="73" transform="matrix(1 0 0 1 3665.39 383)">Non</text><text font-family="DengXian,DengXian_MSFontService,sans-serif" font-weight="400" font-size="73" transform="matrix(1 0 0 1 3800.6 383)">-</text><text font-family="DengXian,DengXian_MSFontService,sans-serif" font-weight="400" font-size="73" transform="matrix(1 0 0 1 3837.26 383)">inclusive</text><path d="M3611.5 472C3611.5 460.126 3621.13 450.5 3633 450.5L4034 450.5C4045.87 450.5 4055.5 460.126 4055.5 472L4055.5 558C4055.5 569.874 4045.87 579.5 4034 579.5L3633 579.5C3621.13 579.5 3611.5 569.874 3611.5 558Z" stroke="#000000" stroke-width="4.58333" stroke-miterlimit="8" fill="#FFFFFF" fill-rule="evenodd"/><text font-family="DengXian,DengXian_MSFontService,sans-serif" font-weight="400" font-size="73" transform="matrix(1 0 0 1 3694.21 538)">Exclusive</text><path d="M0 0C100.893 0 201.785 21.538 201.785 43.076 201.785 64.6135 302.678 86.1515 403.57 86.1515" stroke="#000000" stroke-width="4.58333" stroke-miterlimit="8" fill="none" fill-rule="evenodd" transform="matrix(1 0 0 -1 3207.5 445.652)"/><path d="M3207.5 445.5C3308.39 445.5 3409.29 462.852 3409.29 480.204 3409.29 497.556 3510.18 514.908 3611.07 514.908" stroke="#000000" stroke-width="4.58333" stroke-miterlimit="8" fill="none" fill-rule="evenodd"/><path d="M2683.5 2082.67C2683.5 2067.66 2695.66 2055.5 2710.67 2055.5L3156.33 2055.5C3171.34 2055.5 3183.5 2067.66 3183.5 2082.67L3183.5 2191.33C3183.5 2206.34 3171.34 2218.5 3156.33 2218.5L2710.67 2218.5C2695.66 2218.5 2683.5 2206.34 2683.5 2191.33Z" stroke="#000000" stroke-width="6.875" stroke-miterlimit="8" fill="none" fill-rule="evenodd"/><text font-family="DengXian,DengXian_MSFontService,sans-serif" font-weight="400" font-size="83" transform="matrix(1 0 0 1 2767.96 2164)">多核架构</text><path d="M2103.5 1213.5C2248.5 1213.5 2393.49 1444.31 2393.49 1675.11 2393.49 1905.92 2538.49 2136.72 2683.48 2136.72" stroke="#000000" stroke-width="6.875" stroke-miterlimit="8" fill="none" fill-rule="evenodd"/><path d="M1493.5 2177.67C1493.5 2162.66 1505.66 2150.5 1520.67 2150.5L1965.33 2150.5C1980.34 2150.5 1992.5 2162.66 1992.5 2177.67L1992.5 2286.33C1992.5 2301.34 1980.34 2313.5 1965.33 2313.5L1520.67 2313.5C1505.66 2313.5 1493.5 2301.34 1493.5 2286.33Z" stroke="#000000" stroke-width="6.875" stroke-miterlimit="8" fill="none" fill-rule="evenodd"/><text font-family="DengXian,DengXian_MSFontService,sans-serif" font-weight="400" font-size="83" transform="matrix(1 0 0 1 1536.26 2259)">一致性协议</text><path d="M1493.5 1824.67C1493.5 1809.66 1505.66 1797.5 1520.67 1797.5L1965.33 1797.5C1980.34 1797.5 1992.5 1809.66 1992.5 1824.67L1992.5 1933.33C1992.5 1948.34 1980.34 1960.5 1965.33 1960.5L1520.67 1960.5C1505.66 1960.5 1493.5 1948.34 1493.5 1933.33Z" stroke="#000000" stroke-width="6.875" stroke-miterlimit="8" fill="none" fill-rule="evenodd"/><text font-family="DengXian,DengXian_MSFontService,sans-serif" font-weight="400" font-size="83" transform="matrix(1 0 0 1 1577.51 1906)">地址翻译</text><path d="M2661.5 391.501C2661.5 376.589 2673.59 364.5 2688.5 364.5L3180.5 364.5C3195.41 364.5 3207.5 376.589 3207.5 391.501L3207.5 499.499C3207.5 514.411 3195.41 526.5 3180.5 526.5L2688.5 526.5C2673.59 526.5 2661.5 514.411 2661.5 499.499Z" stroke="#000000" stroke-width="6.875" stroke-miterlimit="8" fill="none" fill-rule="evenodd"/><text font-family="DengXian,DengXian_MSFontService,sans-serif" font-weight="400" font-size="83" transform="matrix(1 0 0 1 2695.86 473)">Inclusion</text><text font-family="DengXian,DengXian_MSFontService,sans-serif" font-weight="400" font-size="83" transform="matrix(1 0 0 1 3007.53 473)">性质</text><path d="M1992.5 1573.5C2116.25 1573.5 2240 1737.96 2240 1902.43 2240 2066.89 2118.54 2231.36 1997.08 2231.36" stroke="#000000" stroke-width="6.875" stroke-miterlimit="8" fill="none" fill-rule="evenodd"/><path d="M1992.5 1573.5C2043.18 1573.5 2093.86 1649.74 2093.86 1725.98 2093.86 1802.23 2045.47 1878.47 1997.08 1878.47" stroke="#000000" stroke-width="6.875" stroke-miterlimit="8" fill="none" fill-rule="evenodd"/><path d="M3611.5 2253.17C3611.5 2241.2 3621.2 2231.5 3633.17 2231.5L3961.83 2231.5C3973.8 2231.5 3983.5 2241.2 3983.5 2253.17L3983.5 2339.83C3983.5 2351.8 3973.8 2361.5 3961.83 2361.5L3633.17 2361.5C3621.2 2361.5 3611.5 2351.8 3611.5 2339.83Z" stroke="#000000" stroke-width="4.58333" stroke-miterlimit="8" fill="none" fill-rule="evenodd"/><text font-family="DengXian,DengXian_MSFontService,sans-serif" font-weight="400" font-size="73" transform="matrix(1 0 0 1 3700.32 2320)">NUCA</text><path d="M3183.5 2137.5C3290.58 2137.5 3397.66 2177.41 3397.66 2217.32 3397.66 2257.22 3504.74 2297.13 3611.82 2297.13" stroke="#000000" stroke-width="4.58333" stroke-miterlimit="8" fill="none" fill-rule="evenodd"/><path d="M834.5 1593.17C834.5 1581.2 844.201 1571.5 856.167 1571.5L1184.83 1571.5C1196.8 1571.5 1206.5 1581.2 1206.5 1593.17L1206.5 1679.83C1206.5 1691.8 1196.8 1701.5 1184.83 1701.5L856.167 1701.5C844.201 1701.5 834.5 1691.8 834.5 1679.83Z" stroke="#000000" stroke-width="4.58333" stroke-miterlimit="8" fill="none" fill-rule="evenodd"/><text font-family="DengXian,DengXian_MSFontService,sans-serif" font-weight="400" font-size="73" transform="matrix(1 0 0 1 951.479 1660)">PIPT</text><path d="M834.5 1748.17C834.5 1736.2 844.201 1726.5 856.167 1726.5L1184.83 1726.5C1196.8 1726.5 1206.5 1736.2 1206.5 1748.17L1206.5 1834.83C1206.5 1846.8 1196.8 1856.5 1184.83 1856.5L856.167 1856.5C844.201 1856.5 834.5 1846.8 834.5 1834.83Z" stroke="#000000" stroke-width="4.58333" stroke-miterlimit="8" fill="none" fill-rule="evenodd"/><text font-family="DengXian,DengXian_MSFontService,sans-serif" font-weight="400" font-size="73" transform="matrix(1 0 0 1 949.475 1815)">VIPT</text><path d="M834.5 1904.17C834.5 1892.2 844.201 1882.5 856.167 1882.5L1184.83 1882.5C1196.8 1882.5 1206.5 1892.2 1206.5 1904.17L1206.5 1990.83C1206.5 2002.8 1196.8 2012.5 1184.83 2012.5L856.167 2012.5C844.201 2012.5 834.5 2002.8 834.5 1990.83Z" stroke="#000000" stroke-width="4.58333" stroke-miterlimit="8" fill="none" fill-rule="evenodd"/><text font-family="DengXian,DengXian_MSFontService,sans-serif" font-weight="400" font-size="73" transform="matrix(1 0 0 1 947.469 1971)">VIVT</text><path d="M1206.5 1636.5C1278.1 1636.5 1349.71 1697.04 1349.71 1757.57 1349.71 1818.11 1421.31 1878.64 1492.91 1878.64" stroke="#000000" stroke-width="4.58333" stroke-miterlimit="8" fill="none" fill-rule="evenodd"/><path d="M1206.5 1791.5C1278.1 1791.5 1349.71 1813.28 1349.71 1835.07 1349.71 1856.85 1421.31 1878.63 1492.91 1878.63" stroke="#000000" stroke-width="4.58333" stroke-miterlimit="8" fill="none" fill-rule="evenodd"/><path d="M0 0C71.6031 0 143.206 17.0275 143.206 34.0551 143.206 51.0826 214.809 68.1101 286.412 68.1101" stroke="#000000" stroke-width="4.58333" stroke-miterlimit="8" fill="none" fill-rule="evenodd" transform="matrix(1 0 0 -1 1206.5 1946.61)"/><path d="M769.5 2112.17C769.5 2100.2 779.201 2090.5 791.167 2090.5L1184.83 2090.5C1196.8 2090.5 1206.5 2100.2 1206.5 2112.17L1206.5 2198.83C1206.5 2210.8 1196.8 2220.5 1184.83 2220.5L791.167 2220.5C779.201 2220.5 769.5 2210.8 769.5 2198.83Z" stroke="#000000" stroke-width="4.58333" stroke-miterlimit="8" fill="none" fill-rule="evenodd"/><text font-family="DengXian,DengXian_MSFontService,sans-serif" font-weight="400" font-size="73" transform="matrix(1 0 0 1 869.023 2179)">Snoopy</text><path d="M769.5 2267.17C769.5 2255.2 779.201 2245.5 791.167 2245.5L1184.83 2245.5C1196.8 2245.5 1206.5 2255.2 1206.5 2267.17L1206.5 2353.83C1206.5 2365.8 1196.8 2375.5 1184.83 2375.5L791.167 2375.5C779.201 2375.5 769.5 2365.8 769.5 2353.83Z" stroke="#000000" stroke-width="4.58333" stroke-miterlimit="8" fill="none" fill-rule="evenodd"/><text font-family="DengXian,DengXian_MSFontService,sans-serif" font-weight="400" font-size="73" transform="matrix(1 0 0 1 844.387 2334)">Directory</text><path d="M1206.5 2155.5C1278.1 2155.5 1349.71 2174.65 1349.71 2193.8 1349.71 2212.95 1421.31 2232.1 1492.91 2232.1" stroke="#000000" stroke-width="4.58333" stroke-miterlimit="8" fill="none" fill-rule="evenodd"/><path d="M0 0C71.6031 0 143.206 19.6608 143.206 39.3219 143.206 58.9827 214.809 78.6435 286.412 78.6435" stroke="#000000" stroke-width="4.58333" stroke-miterlimit="8" fill="none" fill-rule="evenodd" transform="matrix(1 0 0 -1 1206.5 2310.14)"/><path d="M3611.5 1561.17C3611.5 1549.2 3621.2 1539.5 3633.17 1539.5L3961.83 1539.5C3973.8 1539.5 3983.5 1549.2 3983.5 1561.17L3983.5 1647.83C3983.5 1659.8 3973.8 1669.5 3961.83 1669.5L3633.17 1669.5C3621.2 1669.5 3611.5 1659.8 3611.5 1647.83Z" stroke="#ED7D31" stroke-width="4.58333" stroke-miterlimit="8" fill="#FBE5D6" fill-rule="evenodd"/><text font-family="DengXian,DengXian_MSFontService,sans-serif" font-weight="400" font-size="73" transform="matrix(1 0 0 1 3723.81 1628)">预取</text><path d="M3611.5 1408.17C3611.5 1396.2 3621.2 1386.5 3633.17 1386.5L3961.83 1386.5C3973.8 1386.5 3983.5 1396.2 3983.5 1408.17L3983.5 1494.83C3983.5 1506.8 3973.8 1516.5 3961.83 1516.5L3633.17 1516.5C3621.2 1516.5 3611.5 1506.8 3611.5 1494.83Z" stroke="#000000" stroke-width="4.58333" stroke-miterlimit="8" fill="none" fill-rule="evenodd"/><text font-family="DengXian,DengXian_MSFontService,sans-serif" font-weight="400" font-size="73" transform="matrix(1 0 0 1 3723.82 1475)">替换</text><path d="M3611.5 1716.17C3611.5 1704.2 3621.2 1694.5 3633.17 1694.5L3961.83 1694.5C3973.8 1694.5 3983.5 1704.2 3983.5 1716.17L3983.5 1802.83C3983.5 1814.8 3973.8 1824.5 3961.83 1824.5L3633.17 1824.5C3621.2 1824.5 3611.5 1814.8 3611.5 1802.83Z" stroke="#000000" stroke-width="4.58333" stroke-miterlimit="8" fill="none" fill-rule="evenodd"/><text font-family="DengXian,DengXian_MSFontService,sans-serif" font-weight="400" font-size="73" transform="matrix(1 0 0 1 3723.81 1783)">划分</text><path d="M3611.5 1870.17C3611.5 1858.2 3621.2 1848.5 3633.17 1848.5L3961.83 1848.5C3973.8 1848.5 3983.5 1858.2 3983.5 1870.17L3983.5 1956.83C3983.5 1968.8 3973.8 1978.5 3961.83 1978.5L3633.17 1978.5C3621.2 1978.5 3611.5 1968.8 3611.5 1956.83Z" stroke="#000000" stroke-width="4.58333" stroke-miterlimit="8" fill="none" fill-rule="evenodd"/><text font-family="DengXian,DengXian_MSFontService,sans-serif" font-weight="400" font-size="73" transform="matrix(1 0 0 1 3723.81 1937)">压缩</text><path d="M3611.5 2023.17C3611.5 2011.2 3621.2 2001.5 3633.17 2001.5L4088.83 2001.5C4100.8 2001.5 4110.5 2011.2 4110.5 2023.17L4110.5 2109.83C4110.5 2121.8 4100.8 2131.5 4088.83 2131.5L3633.17 2131.5C3621.2 2131.5 3611.5 2121.8 3611.5 2109.83Z" stroke="#000000" stroke-width="4.58333" stroke-miterlimit="8" fill="none" fill-rule="evenodd"/><text font-family="DengXian,DengXian_MSFontService,sans-serif" font-weight="400" font-size="73" transform="matrix(1 0 0 1 3690.86 2090)">透明</text><text font-family="DengXian,DengXian_MSFontService,sans-serif" font-weight="400" font-size="73" transform="matrix(1 0 0 1 3837.53 2090)">Cache</text><path d="M1493.5 1515C1493.5 1498.71 1506.71 1485.5 1523 1485.5L1963 1485.5C1979.29 1485.5 1992.5 1498.71 1992.5 1515L1992.5 1633C1992.5 1649.29 1979.29 1662.5 1963 1662.5L1523 1662.5C1506.71 1662.5 1493.5 1649.29 1493.5 1633Z" stroke="#000000" stroke-width="6.875" stroke-miterlimit="8" fill="none" fill-rule="evenodd"/><text font-family="DengXian,DengXian_MSFontService,sans-serif" font-weight="400" font-size="83" transform="matrix(1 0 0 1 1643.4 1601)">MMU</text><path d="M1318 1214C1361.68 1214 1405.36 1303.94 1405.36 1393.88 1405.36 1483.82 1449.04 1573.76 1492.71 1573.76" stroke="#000000" stroke-width="10.3125" stroke-miterlimit="8" fill="none" fill-rule="evenodd"/><path d="M1548.5 121.667C1548.5 106.663 1560.66 94.5 1575.67 94.5L2021.33 94.5C2036.34 94.5 2048.5 106.663 2048.5 121.667L2048.5 230.333C2048.5 245.337 2036.34 257.5 2021.33 257.5L1575.67 257.5C1560.66 257.5 1548.5 245.337 1548.5 230.333Z" stroke="#000000" stroke-width="6.875" stroke-miterlimit="8" fill="none" fill-rule="evenodd"/><text font-family="DengXian,DengXian_MSFontService,sans-serif" font-weight="400" font-size="83" transform="matrix(1 0 0 1 1715.51 203)">工艺</text><path d="M1548.5 386.5C1548.5 371.589 1560.59 359.5 1575.5 359.5L2020.5 359.5C2035.41 359.5 2047.5 371.589 2047.5 386.5L2047.5 494.5C2047.5 509.412 2035.41 521.5 2020.5 521.5L1575.5 521.5C1560.59 521.5 1548.5 509.412 1548.5 494.5Z" stroke="#000000" stroke-width="6.875" stroke-miterlimit="8" fill="none" fill-rule="evenodd"/><text font-family="DengXian,DengXian_MSFontService,sans-serif" font-weight="400" font-size="83" transform="matrix(1 0 0 1 1591.23 468)">内存控制器</text><path d="M2047.5 440.5C2090.42 440.5 2133.33 525.931 2133.33 611.361 2133.33 696.792 2092.08 782.222 2050.83 782.222" stroke="#000000" stroke-width="6.875" stroke-miterlimit="8" fill="none" fill-rule="evenodd"/><path d="M2048.5 176.5C2165.79 176.5 2283.08 328.066 2283.08 479.633 2283.08 631.2 2167.19 782.766 2051.3 782.766" stroke="#000000" stroke-width="6.875" stroke-miterlimit="8" fill="none" fill-rule="evenodd"/></g></svg>