<svg width="4088" height="2422" xmlns="http://www.w3.org/2000/svg" xmlns:xlink="http://www.w3.org/1999/xlink" xml:space="preserve" overflow="hidden"><defs><clipPath id="clip0"><rect x="133" y="52" width="4088" height="2422"/></clipPath></defs><g clip-path="url(#clip0)" transform="translate(-133 -52)"><path d="M151.5 1402.33C151.5 1377.57 171.573 1357.5 196.334 1357.5L499.666 1357.5C524.427 1357.5 544.5 1377.57 544.5 1402.33L544.5 1581.67C544.5 1606.43 524.427 1626.5 499.666 1626.5L196.334 1626.5C171.573 1626.5 151.5 1606.43 151.5 1581.67Z" stroke="#000000" stroke-width="6.875" stroke-miterlimit="8" fill="none" fill-rule="evenodd"/><text font-family="DengXian,DengXian_MSFontService,sans-serif" font-weight="400" font-size="83" transform="matrix(1 0 0 1 182.662 1469)">硬件数据</text><text font-family="DengXian,DengXian_MSFontService,sans-serif" font-weight="400" font-size="83" transform="matrix(1 0 0 1 265.162 1568)">预取</text><path d="M792.5 930.668C792.5 905.722 812.722 885.5 837.667 885.5L1295.33 885.5C1320.28 885.5 1340.5 905.722 1340.5 930.668L1340.5 1111.33C1340.5 1136.28 1320.28 1156.5 1295.33 1156.5L837.667 1156.5C812.722 1156.5 792.5 1136.28 792.5 1111.33Z" stroke="#000000" stroke-width="6.875" stroke-miterlimit="8" fill="none" fill-rule="evenodd"/><text font-family="DengXian,DengXian_MSFontService,sans-serif" font-weight="400" font-size="83" transform="matrix(1 0 0 1 885.301 999)">基于模式</text><text font-family="DengXian,DengXian_MSFontService,sans-serif" font-weight="400" font-size="83" transform="matrix(1 0 0 1 1215.3 999)">/</text><text font-family="DengXian,DengXian_MSFontService,sans-serif" font-weight="400" font-size="83" transform="matrix(1 0 0 1 844.051 1098)">历史</text><text font-family="DengXian,DengXian_MSFontService,sans-serif" font-weight="400" font-size="83" transform="matrix(1 0 0 1 1009.05 1098)">/</text><text font-family="DengXian,DengXian_MSFontService,sans-serif" font-weight="400" font-size="83" transform="matrix(1 0 0 1 1039.99 1098)">局部性</text><path d="M894.5 2098.83C894.5 2078.22 911.215 2061.5 931.834 2061.5L1405.17 2061.5C1425.78 2061.5 1442.5 2078.22 1442.5 2098.83L1442.5 2248.17C1442.5 2268.79 1425.78 2285.5 1405.17 2285.5L931.834 2285.5C911.215 2285.5 894.5 2268.79 894.5 2248.17Z" stroke="#000000" stroke-width="6.875" stroke-miterlimit="8" fill="none" fill-rule="evenodd"/><text font-family="DengXian,DengXian_MSFontService,sans-serif" font-weight="400" font-size="83" transform="matrix(1 0 0 1 1002.91 2201)">基于执行</text><path d="M1628.5 245.334C1628.5 232.171 1639.17 221.5 1652.33 221.5L2115.67 221.5C2128.83 221.5 2139.5 232.171 2139.5 245.334L2139.5 340.666C2139.5 353.829 2128.83 364.5 2115.67 364.5L1652.33 364.5C1639.17 364.5 1628.5 353.829 1628.5 340.666Z" stroke="#000000" stroke-width="6.875" stroke-miterlimit="8" fill="none" fill-rule="evenodd"/><text font-family="DengXian,DengXian_MSFontService,sans-serif" font-weight="400" font-size="73" transform="matrix(1 0 0 1 1667.36 316)">Stride/Stream</text><path d="M1882.5 656.334C1882.5 643.171 1893.17 632.5 1906.33 632.5L2369.67 632.5C2382.83 632.5 2393.5 643.171 2393.5 656.334L2393.5 751.666C2393.5 764.829 2382.83 775.5 2369.67 775.5L1906.33 775.5C1893.17 775.5 1882.5 764.829 1882.5 751.666Z" stroke="#000000" stroke-width="6.875" stroke-miterlimit="8" fill="none" fill-rule="evenodd"/><text font-family="DengXian,DengXian_MSFontService,sans-serif" font-weight="400" font-size="73" transform="matrix(1 0 0 1 2032.84 727)">Spatial</text><path d="M1876.5 1054.33C1876.5 1041.17 1887.17 1030.5 1900.33 1030.5L2363.67 1030.5C2376.83 1030.5 2387.5 1041.17 2387.5 1054.33L2387.5 1149.67C2387.5 1162.83 2376.83 1173.5 2363.67 1173.5L1900.33 1173.5C1887.17 1173.5 1876.5 1162.83 1876.5 1149.67Z" stroke="#000000" stroke-width="6.875" stroke-miterlimit="8" fill="none" fill-rule="evenodd"/><text font-family="DengXian,DengXian_MSFontService,sans-serif" font-weight="400" font-size="73" transform="matrix(1 0 0 1 1981.85 1126)">Temporal</text><path d="M1830.5 1399.33C1830.5 1386.17 1841.17 1375.5 1854.33 1375.5L2316.67 1375.5C2329.83 1375.5 2340.5 1386.17 2340.5 1399.33L2340.5 1494.67C2340.5 1507.83 2329.83 1518.5 2316.67 1518.5L1854.33 1518.5C1841.17 1518.5 1830.5 1507.83 1830.5 1494.67Z" stroke="#000000" stroke-width="6.875" stroke-miterlimit="8" fill="none" fill-rule="evenodd"/><text font-family="DengXian,DengXian_MSFontService,sans-serif" font-weight="400" font-size="73" transform="matrix(1 0 0 1 1972.46 1470)">Pointer</text><path d="M2259.5 301.001C2259.5 290.231 2268.23 281.5 2279 281.5L2699 281.5C2709.77 281.5 2718.5 290.231 2718.5 301.001L2718.5 378.999C2718.5 389.769 2709.77 398.5 2699 398.5L2279 398.5C2268.23 398.5 2259.5 389.769 2259.5 378.999Z" stroke="#000000" stroke-width="6.875" stroke-miterlimit="8" fill="none" fill-rule="evenodd"/><text font-family="DengXian,DengXian_MSFontService,sans-serif" font-weight="400" font-size="73" transform="matrix(1 0 0 1 2393.41 363)">Offset</text><path d="M2625.5 537C2625.5 526.23 2634.23 517.5 2645 517.5L3377 517.5C3387.77 517.5 3396.5 526.23 3396.5 537L3396.5 615C3396.5 625.77 3387.77 634.5 3377 634.5L2645 634.5C2634.23 634.5 2625.5 625.77 2625.5 615Z" stroke="#000000" stroke-width="6.875" stroke-miterlimit="8" fill="none" fill-rule="evenodd"/><text font-family="DengXian,DengXian_MSFontService,sans-serif" font-weight="400" font-size="73" transform="matrix(1 0 0 1 2680.8 599)">Per</text><text font-family="DengXian,DengXian_MSFontService,sans-serif" font-weight="400" font-size="73" transform="matrix(1 0 0 1 2783.93 599)">-</text><text font-family="DengXian,DengXian_MSFontService,sans-serif" font-weight="400" font-size="73" transform="matrix(1 0 0 1 2820.6 599)">region/Footprint</text><path d="M2687.5 743.834C2687.5 733.156 2696.16 724.5 2706.83 724.5L3287.17 724.5C3297.84 724.5 3306.5 733.156 3306.5 743.834L3306.5 821.166C3306.5 831.844 3297.84 840.5 3287.17 840.5L2706.83 840.5C2696.16 840.5 2687.5 831.844 2687.5 821.166Z" stroke="#000000" stroke-width="6.875" stroke-miterlimit="8" fill="none" fill-rule="evenodd"/><text font-family="DengXian,DengXian_MSFontService,sans-serif" font-weight="400" font-size="73" transform="matrix(1 0 0 1 2790.45 806)">Shared/Delta</text><path d="M1914.5 1983.33C1914.5 1970.17 1925.17 1959.5 1938.33 1959.5L2401.67 1959.5C2414.83 1959.5 2425.5 1970.17 2425.5 1983.33L2425.5 2078.67C2425.5 2091.83 2414.83 2102.5 2401.67 2102.5L1938.33 2102.5C1925.17 2102.5 1914.5 2091.83 1914.5 2078.67Z" stroke="#000000" stroke-width="6.875" stroke-miterlimit="8" fill="none" fill-rule="evenodd"/><text font-family="DengXian,DengXian_MSFontService,sans-serif" font-weight="400" font-size="73" transform="matrix(1 0 0 1 2011.34 2054)">Runahead</text><path d="M1874.5 2220C1874.5 2199.29 1891.29 2182.5 1912 2182.5L2430 2182.5C2450.71 2182.5 2467.5 2199.29 2467.5 2220L2467.5 2370C2467.5 2390.71 2450.71 2407.5 2430 2407.5L1912 2407.5C1891.29 2407.5 1874.5 2390.71 1874.5 2370Z" stroke="#000000" stroke-width="6.875" stroke-miterlimit="8" fill="none" fill-rule="evenodd"/><text font-family="DengXian,DengXian_MSFontService,sans-serif" font-weight="400" font-size="73" transform="matrix(1 0 0 1 1939.41 2274)">Helper</text><text font-family="DengXian,DengXian_MSFontService,sans-serif" font-weight="400" font-size="73" transform="matrix(1 0 0 1 2169.15 2274)">thread/</text><text font-family="DengXian,DengXian_MSFontService,sans-serif" font-weight="400" font-size="73" transform="matrix(1 0 0 1 1918.22 2362)">Precomputation</text><path d="M0 0C61.9372 0 123.875 117.661 123.875 235.322 123.875 352.983 185.812 470.644 247.749 470.644" stroke="#000000" stroke-width="13.75" stroke-miterlimit="8" fill="none" fill-rule="evenodd" transform="matrix(1 0 0 -1 544 1491.64)"/><path d="M544 1491C631.473 1491 718.946 1661.47 718.946 1831.94 718.946 2002.41 806.419 2172.87 893.893 2172.87" stroke="#000000" stroke-width="13.75" stroke-miterlimit="8" fill="none" fill-rule="evenodd"/><path d="M0 0C72.1771 0 144.354 182.134 144.354 364.268 144.354 546.401 216.531 728.535 288.708 728.535" stroke="#000000" stroke-width="10.3125" stroke-miterlimit="8" fill="none" fill-rule="evenodd" transform="matrix(1 0 0 -1 1340 1020.54)"/><path d="M0 0C135.689 0 271.377 79.2793 271.377 158.559 271.377 237.839 407.066 317.118 542.754 317.118" stroke="#000000" stroke-width="10.3125" stroke-miterlimit="8" fill="none" fill-rule="evenodd" transform="matrix(1 0 0 -1 1340 1021.12)"/><path d="M1340 1021C1474.11 1021 1608.23 1041.31 1608.23 1061.61 1608.23 1081.92 1742.34 1102.23 1876.46 1102.23" stroke="#000000" stroke-width="10.3125" stroke-miterlimit="8" fill="none" fill-rule="evenodd"/><path d="M1340 1021C1479.03 1021 1618.05 1127.45 1618.05 1233.89 1618.05 1340.34 1724.08 1446.78 1830.11 1446.78" stroke="#000000" stroke-width="10.3125" stroke-miterlimit="8" fill="none" fill-rule="evenodd"/><path d="M2139.5 292.5C2169.41 292.5 2199.32 304.28 2199.32 316.061 2199.32 327.841 2229.23 339.621 2259.14 339.621" stroke="#000000" stroke-width="6.875" stroke-miterlimit="8" fill="none" fill-rule="evenodd"/><path d="M0 0C58.0266 0 116.053 32.1119 116.053 64.2235 116.053 96.3354 174.08 128.447 232.107 128.447" stroke="#000000" stroke-width="6.875" stroke-miterlimit="8" fill="none" fill-rule="evenodd" transform="matrix(1 0 0 -1 2393.5 703.947)"/><path d="M2393.5 704.5C2466.91 704.5 2540.31 724.126 2540.31 743.753 2540.31 763.38 2613.72 783.006 2687.12 783.006" stroke="#000000" stroke-width="6.875" stroke-miterlimit="8" fill="none" fill-rule="evenodd"/><text font-family="DengXian,DengXian_MSFontService,sans-serif" font-weight="700" font-size="64" transform="matrix(1 0 0 1 2336.72 132)">Stream</text><text font-family="DengXian,DengXian_MSFontService,sans-serif" font-weight="700" font-size="64" transform="matrix(1 0 0 1 2560.16 132)">Buffer</text><text font-family="DengXian,DengXian_MSFontService,sans-serif" font-weight="400" font-size="64" transform="matrix(1 0 0 1 2756.67 132)">ISCA'90</text><path d="M0 0C118.17 0 236.341 35.7081 236.341 71.4162 236.341 107.124 354.511 142.832 472.682 142.832" stroke="#000000" stroke-width="10.3125" stroke-miterlimit="8" fill="none" fill-rule="evenodd" transform="matrix(1 0 0 -1 1442 2172.83)"/><path d="M1442 2173C1550.13 2173 1658.25 2203.31 1658.25 2233.62 1658.25 2263.93 1766.38 2294.24 1874.5 2294.24" stroke="#000000" stroke-width="10.3125" stroke-miterlimit="8" fill="none" fill-rule="evenodd"/><text font-family="DengXian,DengXian_MSFontService,sans-serif" font-weight="700" font-size="64" transform="matrix(1 0 0 1 2879.2 331)">Best</text><text font-family="DengXian,DengXian_MSFontService,sans-serif" font-weight="700" font-size="64" transform="matrix(1 0 0 1 3020.71 331)">Offset</text><text font-family="DengXian,DengXian_MSFontService,sans-serif" font-weight="400" font-size="64" transform="matrix(1 0 0 1 3216.65 331)">HPCA'16</text><path d="M0 0C30.3278 0 60.6558 45.3329 60.6558 90.6657 60.6558 135.999 112.983 181.331 165.311 181.331" stroke="#000000" stroke-width="4.58333" stroke-miterlimit="8" fill="none" fill-rule="evenodd" transform="matrix(1 0 0 -1 2139.5 292.831)"/><path d="M0 0C41.3277 0 82.6554 22.6151 82.6554 45.2304 82.6554 67.8455 123.983 90.4606 165.311 90.4606" stroke="#000000" stroke-width="4.58333" stroke-miterlimit="8" fill="none" fill-rule="evenodd" transform="matrix(1 0 0 -1 2139.5 292.961)"/><path d="M0 0C32.0652 0 64.1304 30.16 64.1304 60.3199 64.1304 90.4799 96.1956 120.64 128.261 120.64" stroke="#000000" stroke-width="4.58333" stroke-miterlimit="8" fill="none" fill-rule="evenodd" transform="matrix(1 0 0 -1 2718.5 340.14)"/><path d="M0 0C32.0652 0 64.1304 7.4422 64.1304 14.8845 64.1304 22.3267 96.1956 29.7689 128.261 29.7689" stroke="#000000" stroke-width="4.58333" stroke-miterlimit="8" fill="none" fill-rule="evenodd" transform="matrix(1 0 0 -1 2718.5 339.269)"/><path d="M2425.5 2030.5C2466.95 2030.5 2508.41 2047.28 2508.41 2064.06 2508.41 2080.84 2549.86 2097.62 2591.31 2097.62" stroke="#000000" stroke-width="4.58333" stroke-miterlimit="8" fill="none" fill-rule="evenodd"/><text font-family="DengXian,DengXian_MSFontService,sans-serif" font-weight="700" font-size="64" transform="matrix(1 0 0 1 3623.97 953)">Markov</text><text font-family="DengXian,DengXian_MSFontService,sans-serif" font-weight="400" font-size="64" transform="matrix(1 0 0 1 3862.88 953)">ISCA'97</text><path d="M0 0C70.4089 0 140.818 20.1904 140.818 40.3808 140.818 60.5712 211.227 80.7616 281.636 80.7616" stroke="#000000" stroke-width="4.58333" stroke-miterlimit="8" fill="none" fill-rule="evenodd" transform="matrix(1 0 0 -1 3310.5 1013.26)"/><path d="M0 0C86.5855 0 173.171 36.1262 173.171 72.2525 173.171 108.378 259.756 144.505 346.342 144.505" stroke="#000000" stroke-width="4.58333" stroke-miterlimit="8" fill="none" fill-rule="evenodd" transform="matrix(1 0 0 -1 3310.5 1190)"/><text font-family="DengXian,DengXian_MSFontService,sans-serif" font-weight="700" font-size="64" transform="matrix(1 0 0 1 3565.84 637)">Bingo</text><text font-family="DengXian,DengXian_MSFontService,sans-serif" font-weight="400" font-size="64" transform="matrix(1 0 0 1 3753.19 637)">HPCA'19</text><path d="M3396.5 575.5C3430.85 575.5 3465.2 585.643 3465.2 595.787 3465.2 605.93 3499.56 616.073 3533.91 616.073" stroke="#000000" stroke-width="4.58333" stroke-miterlimit="8" fill="none" fill-rule="evenodd"/><path d="M2718.5 339.5C2750.56 339.5 2782.63 354.776 2782.63 370.051 2782.63 385.327 2814.7 400.602 2846.76 400.602" stroke="#000000" stroke-width="4.58333" stroke-miterlimit="8" fill="none" fill-rule="evenodd"/><path d="M0 0C34.352 0 68.704 12.5744 68.704 25.1488 68.704 37.7232 103.056 50.2976 137.408 50.2976" stroke="#000000" stroke-width="4.58333" stroke-miterlimit="8" fill="none" fill-rule="evenodd" transform="matrix(1 0 0 -1 3396.5 575.798)"/><text font-family="DengXian,DengXian_MSFontService,sans-serif" font-weight="700" font-size="64" transform="matrix(1 0 0 1 3565.84 546)">AMPM</text><text font-family="DengXian,DengXian_MSFontService,sans-serif" font-weight="400" font-size="64" transform="matrix(1 0 0 1 3782.98 546)">ICS'09</text><path d="M0 0C41.4527 0 82.9055 28.6566 82.9055 57.3134 82.9055 85.97 124.358 114.627 165.811 114.627" stroke="#000000" stroke-width="4.58333" stroke-miterlimit="8" fill="none" fill-rule="evenodd" transform="matrix(1 0 0 -1 2425.5 2031.13)"/><path d="M0 0C56.7938 0 113.588 13.5065 113.588 27.0131 113.588 40.5194 170.381 54.0259 227.175 54.0259" stroke="#000000" stroke-width="4.58333" stroke-miterlimit="8" fill="none" fill-rule="evenodd" transform="matrix(1 0 0 -1 3306.5 782.526)"/><path d="M3306.5 782.5C3363.29 782.5 3420.09 791.711 3420.09 800.922 3420.09 810.134 3476.88 819.345 3533.68 819.345" stroke="#000000" stroke-width="4.58333" stroke-miterlimit="8" fill="none" fill-rule="evenodd"/><path d="M0 0C41.4527 0 82.9055 5.93903 82.9055 11.8779 82.9055 17.8169 124.358 23.7557 165.811 23.7557" stroke="#000000" stroke-width="4.58333" stroke-miterlimit="8" fill="none" fill-rule="evenodd" transform="matrix(1 0 0 -1 2425.5 2031.26)"/><path d="M2789.5 974.001C2789.5 963.231 2798.23 954.5 2809 954.5L3291 954.5C3301.77 954.5 3310.5 963.231 3310.5 974.001L3310.5 1052C3310.5 1062.77 3301.77 1071.5 3291 1071.5L2809 1071.5C2798.23 1071.5 2789.5 1062.77 2789.5 1052Z" stroke="#000000" stroke-width="6.875" stroke-miterlimit="8" fill="none" fill-rule="evenodd"/><text font-family="DengXian,DengXian_MSFontService,sans-serif" font-weight="400" font-size="73" transform="matrix(1 0 0 1 2874.44 1037)">Correlation</text><path d="M2789.5 1151C2789.5 1140.23 2798.23 1131.5 2809 1131.5L3291 1131.5C3301.77 1131.5 3310.5 1140.23 3310.5 1151L3310.5 1229C3310.5 1239.77 3301.77 1248.5 3291 1248.5L2809 1248.5C2798.23 1248.5 2789.5 1239.77 2789.5 1229Z" stroke="#000000" stroke-width="6.875" stroke-miterlimit="8" fill="none" fill-rule="evenodd"/><text font-family="DengXian,DengXian_MSFontService,sans-serif" font-weight="400" font-size="73" transform="matrix(1 0 0 1 2888.47 1213)">Streaming</text><path d="M0 0C100.456 0 200.913 22.2468 200.913 44.4941 200.913 66.7409 301.369 88.9878 401.826 88.9878" stroke="#000000" stroke-width="6.875" stroke-miterlimit="8" fill="none" fill-rule="evenodd" transform="matrix(1 0 0 -1 2387.5 1102.49)"/><path d="M2387.5 1102.5C2487.96 1102.5 2588.41 1124.34 2588.41 1146.18 2588.41 1168.02 2688.87 1189.86 2789.33 1189.86" stroke="#000000" stroke-width="6.875" stroke-miterlimit="8" fill="none" fill-rule="evenodd"/><path d="M0 0C86.5855 0 173.171 13.4083 173.171 26.817 173.171 40.2253 259.756 53.6337 346.342 53.6337" stroke="#000000" stroke-width="4.58333" stroke-miterlimit="8" fill="none" fill-rule="evenodd" transform="matrix(1 0 0 -1 3310.5 1190.13)"/><path d="M3310.5 1189.5C3397.09 1189.5 3483.67 1198.81 3483.67 1208.12 3483.67 1217.43 3570.26 1226.74 3656.84 1226.74" stroke="#000000" stroke-width="4.58333" stroke-miterlimit="8" fill="none" fill-rule="evenodd"/><path d="M3310.5 1189.5C3397.09 1189.5 3483.67 1221.53 3483.67 1253.55 3483.67 1285.58 3570.26 1317.61 3656.84 1317.61" stroke="#000000" stroke-width="4.58333" stroke-miterlimit="8" fill="none" fill-rule="evenodd"/><path d="M3310.5 1189.5C3389.08 1189.5 3467.65 1244.24 3467.65 1298.99 3467.65 1353.73 3562.25 1408.48 3656.84 1408.48" stroke="#000000" stroke-width="4.58333" stroke-miterlimit="8" fill="none" fill-rule="evenodd"/><text font-family="DengXian,DengXian_MSFontService,sans-serif" font-weight="700" font-size="64" transform="matrix(1 0 0 1 3565.88 749)">VLDP</text><text font-family="DengXian,DengXian_MSFontService,sans-serif" font-weight="400" font-size="64" transform="matrix(1 0 0 1 3739.47 749)">MICRO'15</text><text font-family="DengXian,DengXian_MSFontService,sans-serif" font-weight="700" font-size="64" transform="matrix(1 0 0 1 3565.88 840)">SPP</text><text font-family="DengXian,DengXian_MSFontService,sans-serif" font-weight="400" font-size="64" transform="matrix(1 0 0 1 3693.07 840)">MICRO'16</text><text font-family="DengXian,DengXian_MSFontService,sans-serif" font-weight="700" font-size="64" transform="matrix(1 0 0 1 2879.2 421)">MLOP</text><text font-family="DengXian,DengXian_MSFontService,sans-serif" font-weight="400" font-size="64" transform="matrix(1 0 0 1 3073.99 421)">ISCA'19</text><text font-family="DengXian,DengXian_MSFontService,sans-serif" font-weight="700" font-size="64" transform="matrix(1 0 0 1 2336.72 223)">Stride</text><text font-family="DengXian,DengXian_MSFontService,sans-serif" font-weight="400" font-size="64" transform="matrix(1 0 0 1 2525.21 223)">SC'91</text><text font-family="DengXian,DengXian_MSFontService,sans-serif" font-weight="700" font-size="64" transform="matrix(1 0 0 1 3688.68 1157)">TSE</text><text font-family="DengXian,DengXian_MSFontService,sans-serif" font-weight="400" font-size="64" transform="matrix(1 0 0 1 3810.14 1157)">ISCA'05</text><text font-family="DengXian,DengXian_MSFontService,sans-serif" font-weight="700" font-size="64" transform="matrix(1 0 0 1 2623.33 2119)">Vector</text><text font-family="DengXian,DengXian_MSFontService,sans-serif" font-weight="700" font-size="64" transform="matrix(1 0 0 1 2831.88 2119)">Runahead</text><text font-family="DengXian,DengXian_MSFontService,sans-serif" font-weight="400" font-size="64" transform="matrix(1 0 0 1 3140.68 2119)">ISCA'21</text><text font-family="DengXian,DengXian_MSFontService,sans-serif" font-weight="700" font-size="64" transform="matrix(1 0 0 1 2623.33 1937)">Runahead</text><text font-family="DengXian,DengXian_MSFontService,sans-serif" font-weight="700" font-size="64" transform="matrix(1 0 0 1 2932.14 1937)">Execution</text><text font-family="DengXian,DengXian_MSFontService,sans-serif" font-weight="400" font-size="64" transform="matrix(1 0 0 1 3232.34 1937)">HPCA'03</text><text font-family="DengXian,DengXian_MSFontService,sans-serif" font-weight="700" font-size="64" transform="matrix(1 0 0 1 2623.33 2028)">B</text><text font-family="DengXian,DengXian_MSFontService,sans-serif" font-weight="700" font-size="64" transform="matrix(1 0 0 1 2662.29 2028)">-</text><text font-family="DengXian,DengXian_MSFontService,sans-serif" font-weight="700" font-size="64" transform="matrix(1 0 0 1 2694.38 2028)">Fetch</text><text font-family="DengXian,DengXian_MSFontService,sans-serif" font-weight="400" font-size="64" transform="matrix(1 0 0 1 2869.12 2028)">MICRO'14</text><path d="M0 0C41.1115 0 82.223 28.9498 82.223 57.8999 82.223 86.8497 123.335 115.8 164.446 115.8" stroke="#000000" stroke-width="4.58333" stroke-miterlimit="8" fill="none" fill-rule="evenodd" transform="matrix(1 0 0 -1 2340.5 1447.3)"/><path d="M0 0C41.1115 0 82.223 6.48095 82.223 12.9621 82.223 19.443 123.335 25.924 164.446 25.924" stroke="#000000" stroke-width="4.58333" stroke-miterlimit="8" fill="none" fill-rule="evenodd" transform="matrix(1 0 0 -1 2340.5 1446.42)"/><path d="M2467.5 2294.5C2513.76 2294.5 2560.02 2297.53 2560.02 2300.57 2560.02 2303.6 2606.28 2306.63 2652.54 2306.63" stroke="#000000" stroke-width="4.58333" stroke-miterlimit="8" fill="none" fill-rule="evenodd"/><text font-family="DengXian,DengXian_MSFontService,sans-serif" font-weight="700" font-size="64" transform="matrix(1 0 0 1 3688.68 1338)">ISB</text><text font-family="DengXian,DengXian_MSFontService,sans-serif" font-weight="400" font-size="64" transform="matrix(1 0 0 1 3799.25 1338)">MICRO'13</text><text font-family="DengXian,DengXian_MSFontService,sans-serif" font-weight="700" font-size="64" transform="matrix(1 0 0 1 3688.68 1248)">STMS</text><text font-family="DengXian,DengXian_MSFontService,sans-serif" font-weight="400" font-size="64" transform="matrix(1 0 0 1 3871.44 1248)">HPCA'09</text><text font-family="DengXian,DengXian_MSFontService,sans-serif" font-weight="700" font-size="64" transform="matrix(1 0 0 1 3688.68 1429)">Domino</text><text font-family="DengXian,DengXian_MSFontService,sans-serif" font-weight="400" font-size="64" transform="matrix(1 0 0 1 3939.61 1429)">HPCA'18</text><path d="M0 0C34.352 0 68.704 35.3559 68.704 70.7118 68.704 106.068 103.056 141.424 137.408 141.424" stroke="#000000" stroke-width="4.58333" stroke-miterlimit="8" fill="none" fill-rule="evenodd" transform="matrix(1 0 0 -1 3396.5 575.924)"/><text font-family="DengXian,DengXian_MSFontService,sans-serif" font-weight="700" font-size="64" transform="matrix(1 0 0 1 2537.78 1352)">Jump</text><text font-family="DengXian,DengXian_MSFontService,sans-serif" font-weight="700" font-size="64" transform="matrix(1 0 0 1 2713.09 1352)">Pointer</text><text font-family="DengXian,DengXian_MSFontService,sans-serif" font-weight="400" font-size="64" transform="matrix(1 0 0 1 2941.11 1352)">ISCA'99</text><text font-family="DengXian,DengXian_MSFontService,sans-serif" font-weight="700" font-size="64" transform="matrix(1 0 0 1 2684.92 2328)">Speculative</text><text font-family="DengXian,DengXian_MSFontService,sans-serif" font-weight="700" font-size="64" transform="matrix(1 0 0 1 3034.4 2328)">Precomputation</text><text font-family="DengXian,DengXian_MSFontService,sans-serif" font-weight="400" font-size="64" transform="matrix(1 0 0 1 3519.66 2328)">ISCA'01</text><text font-family="DengXian,DengXian_MSFontService,sans-serif" font-weight="700" font-size="64" transform="matrix(1 0 0 1 2684.92 2418)">CRISP</text><text font-family="DengXian,DengXian_MSFontService,sans-serif" font-weight="400" font-size="64" transform="matrix(1 0 0 1 2873.99 2418)">ASPLOS'22</text><path d="M0 0C46.2601 0 92.5202 19.6852 92.5202 39.3703 92.5202 59.0555 138.78 78.7406 185.04 78.7406" stroke="#000000" stroke-width="4.58333" stroke-miterlimit="8" fill="none" fill-rule="evenodd" transform="matrix(1 0 0 -1 2467.5 2295.24)"/><path d="M2467.5 2294.5C2513.76 2294.5 2560.02 2320.25 2560.02 2346 2560.02 2371.75 2606.28 2397.5 2652.54 2397.5" stroke="#000000" stroke-width="4.58333" stroke-miterlimit="8" fill="none" fill-rule="evenodd"/><text font-family="DengXian,DengXian_MSFontService,sans-serif" font-weight="700" font-size="64" transform="matrix(1 0 0 1 2879.2 240)">Sandbox</text><text font-family="DengXian,DengXian_MSFontService,sans-serif" font-weight="400" font-size="64" transform="matrix(1 0 0 1 3149.62 240)">HPCA'14</text><text font-family="DengXian,DengXian_MSFontService,sans-serif" font-weight="700" font-size="64" transform="matrix(1 0 0 1 3688.68 1066)">GHB</text><text font-family="DengXian,DengXian_MSFontService,sans-serif" font-weight="400" font-size="64" transform="matrix(1 0 0 1 3837.06 1066)">HPCA'04</text><text font-family="DengXian,DengXian_MSFontService,sans-serif" font-weight="700" font-size="64" transform="matrix(1 0 0 1 2684.4 2237)">Dependence Based</text><text font-family="DengXian,DengXian_MSFontService,sans-serif" font-weight="700" font-size="64" transform="matrix(1 0 0 1 3257.32 2237)">Prefetching</text><text font-family="DengXian,DengXian_MSFontService,sans-serif" font-weight="400" font-size="64" transform="matrix(1 0 0 1 3609.66 2237)">ASPLOS'98</text><path d="M2340.5 1446.5C2381.61 1446.5 2422.72 1462.3 2422.72 1478.09 2422.72 1493.89 2463.83 1509.68 2504.95 1509.68" stroke="#000000" stroke-width="4.58333" stroke-miterlimit="8" fill="none" fill-rule="evenodd"/><text font-family="DengXian,DengXian_MSFontService,sans-serif" font-weight="700" font-size="64" transform="matrix(1 0 0 1 2537.78 1442)">Content</text><text font-family="DengXian,DengXian_MSFontService,sans-serif" font-weight="700" font-size="64" transform="matrix(1 0 0 1 2770.95 1442)">-</text><text font-family="DengXian,DengXian_MSFontService,sans-serif" font-weight="700" font-size="64" transform="matrix(1 0 0 1 2803.04 1442)">Directed </text><text font-family="DengXian,DengXian_MSFontService,sans-serif" font-weight="400" font-size="64" transform="matrix(1 0 0 1 3067.15 1442)">ASPLOS'02</text><text font-family="DengXian,DengXian_MSFontService,sans-serif" font-weight="700" font-size="64" transform="matrix(1 0 0 1 2537.78 1531)">Pointer</text><text font-family="DengXian,DengXian_MSFontService,sans-serif" font-weight="700" font-size="64" transform="matrix(1 0 0 1 2765.8 1531)">Cache</text><text font-family="DengXian,DengXian_MSFontService,sans-serif" font-weight="400" font-size="64" transform="matrix(1 0 0 1 2958.87 1531)">MICRO'02</text><text font-family="DengXian,DengXian_MSFontService,sans-serif" font-weight="700" font-size="64" transform="matrix(1 0 0 1 3565.84 455)">SMS</text><text font-family="DengXian,DengXian_MSFontService,sans-serif" font-weight="400" font-size="64" transform="matrix(1 0 0 1 3713.08 455)">ISCA'06</text><text font-family="DengXian,DengXian_MSFontService,sans-serif" font-weight="700" font-size="64" transform="matrix(1 0 0 1 3565.84 364)">SFP</text><text font-family="DengXian,DengXian_MSFontService,sans-serif" font-weight="400" font-size="64" transform="matrix(1 0 0 1 3687.87 364)">ISCA'98</text><path d="M0 0C20.1467 0 40.2936 58.0736 40.2936 116.147 40.2936 174.221 88.8507 232.295 137.408 232.295" stroke="#000000" stroke-width="4.58333" stroke-miterlimit="8" fill="none" fill-rule="evenodd" transform="matrix(1 0 0 -1 3396.5 575.794)"/><text font-family="DengXian,DengXian_MSFontService,sans-serif" font-weight="700" font-size="64" transform="matrix(1 0 0 1 3688.68 1520)">MISB</text><text font-family="DengXian,DengXian_MSFontService,sans-serif" font-weight="400" font-size="64" transform="matrix(1 0 0 1 3858.83 1520)">ISCA'19</text><path d="M3310.5 1189.5C3369.85 1189.5 3429.2 1266.86 3429.2 1344.23 3429.2 1421.59 3543.02 1498.96 3656.84 1498.96" stroke="#000000" stroke-width="4.58333" stroke-miterlimit="8" fill="none" fill-rule="evenodd"/><text font-family="DengXian,DengXian_MSFontService,sans-serif" font-weight="700" font-size="64" transform="matrix(1 0 0 1 2537.78 1621)">IMP</text><text font-family="DengXian,DengXian_MSFontService,sans-serif" font-weight="400" font-size="64" transform="matrix(1 0 0 1 2671.26 1621)">MICRO'15</text><path d="M2340.5 1446.5C2374.68 1446.5 2408.86 1484.91 2408.86 1523.33 2408.86 1561.74 2456.9 1600.16 2504.95 1600.16" stroke="#000000" stroke-width="4.58333" stroke-miterlimit="8" fill="none" fill-rule="evenodd"/><path d="M1668.5 1705.33C1668.5 1692.17 1679.17 1681.5 1692.33 1681.5L2352.67 1681.5C2365.83 1681.5 2376.5 1692.17 2376.5 1705.33L2376.5 1800.67C2376.5 1813.83 2365.83 1824.5 2352.67 1824.5L1692.33 1824.5C1679.17 1824.5 1668.5 1813.83 1668.5 1800.67Z" stroke="#000000" stroke-width="6.875" stroke-miterlimit="8" fill="none" fill-rule="evenodd"/><text font-family="DengXian,DengXian_MSFontService,sans-serif" font-weight="400" font-size="73" transform="matrix(1 0 0 1 1765.09 1776)">Value</text><text font-family="DengXian,DengXian_MSFontService,sans-serif" font-weight="400" font-size="73" transform="matrix(1 0 0 1 1961.6 1776)">Prediction</text><path d="M1340 1021C1422.13 1021 1504.25 1203.93 1504.25 1386.86 1504.25 1569.78 1586.38 1752.71 1668.51 1752.71" stroke="#000000" stroke-width="10.3125" stroke-miterlimit="8" fill="none" fill-rule="evenodd"/><text font-family="DengXian,DengXian_MSFontService,sans-serif" font-weight="700" font-size="64" transform="matrix(1 0 0 1 2614.92 1730)">DVLP</text><text font-family="DengXian,DengXian_MSFontService,sans-serif" font-weight="400" font-size="64" transform="matrix(1 0 0 1 2788.52 1730)">MICRO'17</text><text font-family="DengXian,DengXian_MSFontService,sans-serif" font-weight="700" font-size="64" transform="matrix(1 0 0 1 2614.92 1821)">Register File Prefetching</text><text font-family="DengXian,DengXian_MSFontService,sans-serif" font-weight="400" font-size="64" transform="matrix(1 0 0 1 3340.23 1821)">ISCA'22</text><path d="M2376.5 1752.5C2427.99 1752.5 2479.49 1764.31 2479.49 1776.12 2479.49 1787.92 2530.98 1799.73 2582.48 1799.73" stroke="#000000" stroke-width="4.58333" stroke-miterlimit="8" fill="none" fill-rule="evenodd"/><path d="M0 0C51.4945 0 102.989 10.8109 102.989 21.6216 102.989 32.4325 154.483 43.2432 205.978 43.2432" stroke="#000000" stroke-width="4.58333" stroke-miterlimit="8" fill="none" fill-rule="evenodd" transform="matrix(1 0 0 -1 2376.5 1752.74)"/></g></svg>