<svg width="2448" height="1263" xmlns="http://www.w3.org/2000/svg" xmlns:xlink="http://www.w3.org/1999/xlink" xml:space="preserve" overflow="hidden"><defs><clipPath id="clip0"><rect x="1736" y="792" width="2448" height="1263"/></clipPath></defs><g clip-path="url(#clip0)" transform="translate(-1736 -792)"><path d="M2500.5 877.5C2500.5 837.735 2532.51 805.5 2572 805.5 2611.49 805.5 2643.5 837.735 2643.5 877.5 2643.5 917.264 2611.49 949.5 2572 949.5 2532.51 949.5 2500.5 917.264 2500.5 877.5Z" stroke="#404040" stroke-width="6.875" stroke-miterlimit="8" fill="#FFFFFF" fill-rule="evenodd"/><text fill="#404040" font-family="Arial,Arial_MSFontService,sans-serif" font-weight="400" font-size="83" transform="matrix(1 0 0 1 2549 907)">1</text><path d="M1.41539-3.13258 244.316 106.617 241.485 112.882-1.41539 3.13258ZM244.385 95.332 263.784 119.185 233.062 120.393Z" fill="#404040" transform="matrix(-1 0 0 1 2522.28 928.5)"/><path d="M2624.93 925.372 2858.02 1031.64 2855.17 1037.89 2622.07 931.628ZM2858.13 1020.35 2877.45 1044.27 2846.72 1045.37Z" fill="#404040"/><text fill="#424242" font-family="Microsoft YaHei,Microsoft YaHei_MSFontService,sans-serif" font-weight="400" font-size="92" transform="matrix(1 0 0 1 3483.09 909)">是否选节点</text><text fill="#424242" font-family="Arial,Arial_MSFontService,sans-serif" font-weight="400" font-size="92" transform="matrix(1 0 0 1 3941.43 909)">1</text><text fill="#424242" font-family="Microsoft YaHei,Microsoft YaHei_MSFontService,sans-serif" font-weight="400" font-size="92" transform="matrix(1 0 0 1 3992.42 909)">？</text><path d="M2135.5 1098C2135.5 1058.51 2167.51 1026.5 2207 1026.5 2246.49 1026.5 2278.5 1058.51 2278.5 1098 2278.5 1137.49 2246.49 1169.5 2207 1169.5 2167.51 1169.5 2135.5 1137.49 2135.5 1098Z" stroke="#404040" stroke-width="6.875" stroke-miterlimit="8" fill="#FFFFFF" fill-rule="evenodd"/><text fill="#404040" font-family="Arial,Arial_MSFontService,sans-serif" font-weight="400" font-size="83" transform="matrix(1 0 0 1 2184 1128)">2</text><path d="M2.88455-1.8697 77.7674 113.659 71.9983 117.398-2.88455 1.8697ZM83.9281 104.203 87.3475 134.759 60.8517 119.161Z" fill="#404040" transform="matrix(-1 0 0 1 2156.85 1148.5)"/><path d="M2261.46 1146.75 2329.73 1261.8 2323.82 1265.31 2255.54 1150.25ZM2336.26 1252.59 2338.47 1283.26 2312.61 1266.63Z" fill="#404040"/><path d="M1827.5 1763C1827.5 1723.51 1859.51 1691.5 1899 1691.5 1938.49 1691.5 1970.5 1723.51 1970.5 1763 1970.5 1802.49 1938.49 1834.5 1899 1834.5 1859.51 1834.5 1827.5 1802.49 1827.5 1763Z" stroke="#404040" stroke-width="6.875" stroke-miterlimit="8" fill="#FFFFFF" fill-rule="evenodd"/><text fill="#404040" font-family="Arial,Arial_MSFontService,sans-serif" font-weight="400" font-size="83" transform="matrix(1 0 0 1 1869.05 1793)">N</text><path d="M3.17163-1.32558 44.6507 97.9185 38.3075 100.57-3.17163 1.32558ZM52.3982 89.7129 50.3163 120.388 27.0252 100.318Z" fill="#404040" transform="matrix(-1 0 0 1 1848.82 1813.5)"/><path d="M1952.67 1812.17 1994.15 1911.42 1987.81 1914.07 1946.33 1814.83ZM2001.9 1903.21 1999.82 1933.89 1976.53 1913.82Z" fill="#404040"/><path d="M2208.5 1763C2208.5 1723.51 2240.51 1691.5 2280 1691.5 2319.49 1691.5 2351.5 1723.51 2351.5 1763 2351.5 1802.49 2319.49 1834.5 2280 1834.5 2240.51 1834.5 2208.5 1802.49 2208.5 1763Z" stroke="#404040" stroke-width="6.875" stroke-miterlimit="8" fill="#FFFFFF" fill-rule="evenodd"/><text fill="#404040" font-family="Arial,Arial_MSFontService,sans-serif" font-weight="400" font-size="83" transform="matrix(1 0 0 1 2249.56 1793)">N</text><path d="M3.27074-1.05767 35.1498 97.5256 28.6083 99.641-3.27074 1.05767ZM43.5518 89.9917 38.9302 120.388 17.3859 98.453Z" fill="#404040" transform="matrix(-1 0 0 1 2229.43 1813.5)"/><path d="M2333.73 1812.31 2370.41 1912.15 2363.95 1914.52 2327.27 1814.69ZM2378.51 1904.29 2375.08 1934.84 2352.69 1913.77Z" fill="#404040"/><path d="M2584.5 1763C2584.5 1723.51 2616.51 1691.5 2656 1691.5 2695.49 1691.5 2727.5 1723.51 2727.5 1763 2727.5 1802.49 2695.49 1834.5 2656 1834.5 2616.51 1834.5 2584.5 1802.49 2584.5 1763Z" stroke="#404040" stroke-width="6.875" stroke-miterlimit="8" fill="#FFFFFF" fill-rule="evenodd"/><text fill="#404040" font-family="Arial,Arial_MSFontService,sans-serif" font-weight="400" font-size="83" transform="matrix(1 0 0 1 2626 1793)">N</text><path d="M3.25659-1.10046 36.6014 97.5772 30.0883 99.7781-3.25659 1.10046ZM44.9039 89.9337 40.6812 120.388 18.8512 98.7374Z" fill="#404040" transform="matrix(-1 0 0 1 2606.18 1813.5)"/><path d="M2709.66 1812.16 2751.84 1911.45 2745.51 1914.14 2703.34 1814.84ZM2759.54 1903.2 2757.63 1933.89 2734.22 1913.95Z" fill="#404040"/><path d="M3194.5 1763C3194.5 1723.51 3226.51 1691.5 3266 1691.5 3305.49 1691.5 3337.5 1723.51 3337.5 1763 3337.5 1802.49 3305.49 1834.5 3266 1834.5 3226.51 1834.5 3194.5 1802.49 3194.5 1763Z" stroke="#404040" stroke-width="6.875" stroke-miterlimit="8" fill="#FFFFFF" fill-rule="evenodd"/><text fill="#404040" font-family="Arial,Arial_MSFontService,sans-serif" font-weight="400" font-size="83" transform="matrix(1 0 0 1 3236.03 1793)">N</text><path d="M3.26997-1.06003 35.2296 97.5284 28.6897 99.6485-3.26997 1.06003ZM43.6262 89.9883 39.0265 120.388 17.4664 98.4686Z" fill="#404040" transform="matrix(-1 0 0 1 3215.53 1813.5)"/><path d="M3319.74 1812.34 3355.11 1911.15 3348.64 1913.47 3313.26 1814.66ZM3363.28 1903.36 3359.6 1933.89 3337.39 1912.63Z" fill="#404040"/><path d="M1947.5 1334C1947.5 1294.51 1979.51 1262.5 2019 1262.5 2058.49 1262.5 2090.5 1294.51 2090.5 1334 2090.5 1373.49 2058.49 1405.5 2019 1405.5 1979.51 1405.5 1947.5 1373.49 1947.5 1334Z" stroke="#404040" stroke-width="6.875" stroke-miterlimit="8" fill="#FFFFFF" fill-rule="evenodd"/><text fill="#404040" font-family="Arial,Arial_MSFontService,sans-serif" font-weight="400" font-size="83" transform="matrix(1 0 0 1 1995.44 1364)">3</text><path d="M2.96501-1.73928 58.9151 93.6406 52.9851 97.1192-2.96501 1.73928ZM65.4911 84.4695 67.5453 115.147 41.771 98.3837Z" fill="#404040" transform="matrix(-1 0 0 1 1968.05 1384.5)"/><path d="M2072.46 1382.76 2128.41 1478.14 2122.48 1481.62 2066.53 1386.24ZM2134.99 1468.97 2137.04 1499.65 2111.27 1482.88Z" fill="#404040"/><path d="M2317.5 1334C2317.5 1294.51 2349.51 1262.5 2389 1262.5 2428.49 1262.5 2460.5 1294.51 2460.5 1334 2460.5 1373.49 2428.49 1405.5 2389 1405.5 2349.51 1405.5 2317.5 1373.49 2317.5 1334Z" stroke="#404040" stroke-width="6.875" stroke-miterlimit="8" fill="#FFFFFF" fill-rule="evenodd"/><text fill="#404040" font-family="Arial,Arial_MSFontService,sans-serif" font-weight="400" font-size="83" transform="matrix(1 0 0 1 2365.18 1364)">3</text><path d="M2.96501-1.73928 58.9151 93.6406 52.9851 97.1192-2.96501 1.73928ZM65.4911 84.4695 67.5453 115.147 41.771 98.3837Z" fill="#404040" transform="matrix(-1 0 0 1 2338.05 1384.5)"/><path d="M2442.47 1382.76 2498.41 1478.14 2492.48 1481.62 2436.53 1386.24ZM2504.99 1468.97 2507.04 1499.65 2481.27 1482.88Z" fill="#404040"/><path d="M3039.5 1333.5C3039.5 1293.74 3071.74 1261.5 3111.5 1261.5 3151.26 1261.5 3183.5 1293.74 3183.5 1333.5 3183.5 1373.26 3151.26 1405.5 3111.5 1405.5 3071.74 1405.5 3039.5 1373.26 3039.5 1333.5Z" stroke="#404040" stroke-width="6.875" stroke-miterlimit="8" fill="#FFFFFF" fill-rule="evenodd"/><text fill="#404040" font-family="Arial,Arial_MSFontService,sans-serif" font-weight="400" font-size="83" transform="matrix(1 0 0 1 3088.09 1364)">3</text><path d="M2.96501-1.73928 58.9151 93.6406 52.9851 97.1192-2.96501 1.73928ZM65.4911 84.4695 67.5453 115.147 41.771 98.3837Z" fill="#404040" transform="matrix(-1 0 0 1 3061.05 1384.5)"/><path d="M3165.47 1382.76 3221.41 1478.14 3215.48 1481.62 3159.53 1386.24ZM3227.99 1468.97 3230.04 1499.65 3204.27 1482.88Z" fill="#404040"/><path d="M2856.5 1094C2856.5 1054.51 2888.51 1022.5 2928 1022.5 2967.49 1022.5 2999.5 1054.51 2999.5 1094 2999.5 1133.49 2967.49 1165.5 2928 1165.5 2888.51 1165.5 2856.5 1133.49 2856.5 1094Z" stroke="#404040" stroke-width="6.875" stroke-miterlimit="8" fill="#FFFFFF" fill-rule="evenodd"/><text fill="#404040" font-family="Arial,Arial_MSFontService,sans-serif" font-weight="400" font-size="83" transform="matrix(1 0 0 1 2904.15 1124)">2</text><path d="M3.01627-1.64879 67.4032 116.139 61.3706 119.437-3.01627 1.64879ZM74.2536 107.171 75.3789 137.897 50.1234 120.362Z" fill="#404040" transform="matrix(-1 0 0 1 2876.88 1145.5)"/><path d="M2981.45 1143.73 3052.39 1261.98 3046.49 1265.51 2975.55 1147.27ZM3058.87 1252.74 3061.23 1283.4 3035.29 1266.89Z" fill="#404040"/><path d="M2679.5 1333.5C2679.5 1293.74 2711.51 1261.5 2751 1261.5 2790.49 1261.5 2822.5 1293.74 2822.5 1333.5 2822.5 1373.26 2790.49 1405.5 2751 1405.5 2711.51 1405.5 2679.5 1373.26 2679.5 1333.5Z" stroke="#404040" stroke-width="6.875" stroke-miterlimit="8" fill="#FFFFFF" fill-rule="evenodd"/><text fill="#404040" font-family="Arial,Arial_MSFontService,sans-serif" font-weight="400" font-size="83" transform="matrix(1 0 0 1 2727.56 1364)">3</text><path d="M2.96501-1.73928 58.9151 93.6406 52.9851 97.1192-2.96501 1.73928ZM65.4911 84.4695 67.5453 115.147 41.771 98.3837Z" fill="#404040" transform="matrix(-1 0 0 1 2700.05 1384.5)"/><path d="M2804.44 1382.72 2862.1 1478.25 2856.21 1481.8 2798.56 1386.28ZM2868.56 1469 2871 1499.65 2845.02 1483.21Z" fill="#404040"/><text fill="#424242" font-family="Microsoft YaHei,Microsoft YaHei_MSFontService,sans-serif" font-weight="400" font-size="92" transform="matrix(1 0 0 1 3483.09 1129)">是否选节点</text><text fill="#424242" font-family="Arial,Arial_MSFontService,sans-serif" font-weight="400" font-size="92" transform="matrix(1 0 0 1 3941.43 1129)">2</text><text fill="#424242" font-family="Microsoft YaHei,Microsoft YaHei_MSFontService,sans-serif" font-weight="400" font-size="92" transform="matrix(1 0 0 1 3992.42 1129)">？</text><text fill="#424242" font-family="Microsoft YaHei,Microsoft YaHei_MSFontService,sans-serif" font-weight="400" font-size="92" transform="matrix(1 0 0 1 3483.09 1365)">是否选节点</text><text fill="#424242" font-family="Arial,Arial_MSFontService,sans-serif" font-weight="400" font-size="92" transform="matrix(1 0 0 1 3941.43 1365)">3</text><text fill="#424242" font-family="Microsoft YaHei,Microsoft YaHei_MSFontService,sans-serif" font-weight="400" font-size="92" transform="matrix(1 0 0 1 3992.42 1365)">？</text><text fill="#424242" font-family="Microsoft YaHei,Microsoft YaHei_MSFontService,sans-serif" font-weight="400" font-size="92" transform="matrix(1 0 0 1 3484.33 1794)">是否选节点</text><text fill="#424242" font-family="Arial,Arial_MSFontService,sans-serif" font-weight="400" font-size="92" transform="matrix(1 0 0 1 3942.66 1794)">N</text><text fill="#424242" font-family="Microsoft YaHei,Microsoft YaHei_MSFontService,sans-serif" font-weight="400" font-size="92" transform="matrix(1 0 0 1 4009.12 1794)">？</text><rect x="1739.5" y="1933.5" width="117" height="117" stroke="#404040" stroke-width="6.875" stroke-miterlimit="8" fill="none"/><rect x="2699.5" y="1933.5" width="117" height="117" stroke="#404040" stroke-width="6.875" stroke-miterlimit="8" fill="none"/><rect x="2131.5" y="1933.5" width="117" height="117" stroke="#404040" stroke-width="6.875" stroke-miterlimit="8" fill="none"/><rect x="2316.5" y="1934.5" width="117" height="117" stroke="#404040" stroke-width="6.875" stroke-miterlimit="8" fill="none"/><rect x="2506.5" y="1933.5" width="117" height="117" stroke="#404040" stroke-width="6.875" stroke-miterlimit="8" fill="none"/><rect x="1941.5" y="1933.5" width="117" height="117" stroke="#404040" stroke-width="6.875" stroke-miterlimit="8" fill="none"/><rect x="3118.5" y="1933.5" width="117" height="117" stroke="#404040" stroke-width="6.875" stroke-miterlimit="8" fill="none"/><rect x="3301.5" y="1933.5" width="117" height="117" stroke="#404040" stroke-width="6.875" stroke-miterlimit="8" fill="none"/><text fill="#404040" font-family="Arial,Arial_MSFontService,sans-serif" font-weight="400" font-size="83" transform="matrix(1 0 0 1 2523.26 1604)">…</text><text fill="#404040" font-family="Arial,Arial_MSFontService,sans-serif" font-weight="400" font-size="83" transform="matrix(1 0 0 1 2934.39 1864)">…</text><text fill="#404040" font-family="Arial,Arial_MSFontService,sans-serif" font-weight="400" font-size="83" transform="matrix(1 0 0 1 2363.25 952)">y</text><text fill="#404040" font-family="Arial,Arial_MSFontService,sans-serif" font-weight="400" font-size="83" transform="matrix(1 0 0 1 2742.15 963)">n</text></g></svg>