<svg width="2838" height="942" xmlns="http://www.w3.org/2000/svg" xmlns:xlink="http://www.w3.org/1999/xlink" xml:space="preserve" overflow="hidden"><defs><clipPath id="clip0"><rect x="427" y="898" width="2838" height="942"/></clipPath></defs><g clip-path="url(#clip0)" transform="translate(-427 -898)"><path d="M809.5 1570.5C809.5 1534.6 838.602 1505.5 874.5 1505.5 910.398 1505.5 939.5 1534.6 939.5 1570.5 939.5 1606.4 910.398 1635.5 874.5 1635.5 838.602 1635.5 809.5 1606.4 809.5 1570.5Z" stroke="#000000" stroke-width="6.875" stroke-miterlimit="8" fill="none" fill-rule="evenodd"/><text font-family="Times New Roman,Times New Roman_MSFontService,sans-serif" font-weight="400" font-size="64" transform="matrix(1 0 0 1 814.58 1594)">AND</text><rect x="1020.5" y="1257.5" width="123" height="124" stroke="#000000" stroke-width="6.875" stroke-miterlimit="8" fill="none"/><text font-family="Times New Roman,Times New Roman_MSFontService,sans-serif" font-weight="400" font-size="83" transform="matrix(1 0 0 1 1040.04 1349)">$3</text><rect x="812.5" y="1258.5" width="124" height="124" stroke="#000000" stroke-width="6.875" stroke-miterlimit="8" fill="none"/><text font-family="Times New Roman,Times New Roman_MSFontService,sans-serif" font-weight="400" font-size="83" transform="matrix(1 0 0 1 832.842 1351)">$2</text><path d="M684.859 1385 813.676 1506.56 808.958 1511.56 680.141 1390ZM817.42 1495.91 827.984 1524.78 798.546 1515.91Z"/><path d="M2.28593-2.56728 146.647 125.973 142.075 131.108-2.28593 2.56728ZM150.081 115.223 161.476 143.78 131.794 135.762Z" transform="matrix(-1 0 0 1 1081.98 1381.5)"/><path d="M617.5 1322.5C617.5 1286.6 646.601 1257.5 682.5 1257.5 718.399 1257.5 747.5 1286.6 747.5 1322.5 747.5 1358.4 718.399 1387.5 682.5 1387.5 646.601 1387.5 617.5 1358.4 617.5 1322.5Z" stroke="#000000" stroke-width="6.875" stroke-miterlimit="8" fill="none" fill-rule="evenodd"/><text font-family="Times New Roman,Times New Roman_MSFontService,sans-serif" font-weight="400" font-size="64" transform="matrix(1 0 0 1 625.453 1346)">INV</text><rect x="621.5" y="999.5" width="123" height="124" stroke="#000000" stroke-width="6.875" stroke-miterlimit="8" fill="none"/><text font-family="Times New Roman,Times New Roman_MSFontService,sans-serif" font-weight="400" font-size="83" transform="matrix(1 0 0 1 641.208 1091)">$1</text><path d="M3.43749-0.0059908 3.61301 100.703-3.26198 100.715-3.43749 0.0059908ZM13.9175 96.1019 0.215453 123.626-13.5825 96.1498Z" transform="matrix(-1 0 0 1 874.715 1382.5)"/><path d="M685.937 1123.5 685.938 1235.22 679.063 1235.22 679.062 1123.5ZM696.25 1230.64 682.5 1258.14 668.75 1230.64Z"/><path d="M1617.5 1190.5C1617.5 1154.6 1646.6 1125.5 1682.5 1125.5 1718.4 1125.5 1747.5 1154.6 1747.5 1190.5 1747.5 1226.4 1718.4 1255.5 1682.5 1255.5 1646.6 1255.5 1617.5 1226.4 1617.5 1190.5Z" stroke="#000000" stroke-width="6.875" stroke-miterlimit="8" fill="none" fill-rule="evenodd"/><text font-family="Times New Roman,Times New Roman_MSFontService,sans-serif" font-weight="400" font-size="64" transform="matrix(1 0 0 1 1622.82 1214)">ADD</text><rect x="1799.5" y="919.5" width="124" height="123" stroke="#000000" stroke-width="6.875" stroke-miterlimit="8" fill="none"/><text font-family="Times New Roman,Times New Roman_MSFontService,sans-serif" font-weight="400" font-size="83" transform="matrix(1 0 0 1 1819.93 1011)">$1</text><path d="M0.992085-3.29123 309.421 89.6796 307.437 96.262-0.992085 3.29123ZM308.009 78.4831 330.371 99.5846 300.072 104.813Z" transform="matrix(-1 0 0 1 2058.87 1045.5)"/><path d="M1.45-3.11671 159.733 70.5222 156.833 76.7556-1.45 3.11671ZM159.928 59.2386 179.061 83.3055 148.328 84.1724Z" transform="matrix(-1 0 0 1 1861.56 1042.5)"/><path d="M1993.5 980.5C1993.5 944.601 2022.6 915.5 2058.5 915.5 2094.4 915.5 2123.5 944.601 2123.5 980.5 2123.5 1016.4 2094.4 1045.5 2058.5 1045.5 2022.6 1045.5 1993.5 1016.4 1993.5 980.5Z" stroke="#000000" stroke-width="6.875" stroke-miterlimit="8" fill="none" fill-rule="evenodd"/><text font-family="Times New Roman,Times New Roman_MSFontService,sans-serif" font-weight="400" font-size="83" transform="matrix(1 0 0 1 2024.05 1010)">-</text><text font-family="Times New Roman,Times New Roman_MSFontService,sans-serif" font-weight="400" font-size="83" transform="matrix(1 0 0 1 2051.55 1010)">1</text><path d="M1692.5 1391.5C1692.5 1355.6 1721.6 1326.5 1757.5 1326.5 1793.4 1326.5 1822.5 1355.6 1822.5 1391.5 1822.5 1427.4 1793.4 1456.5 1757.5 1456.5 1721.6 1456.5 1692.5 1427.4 1692.5 1391.5Z" stroke="#000000" stroke-width="6.875" stroke-miterlimit="8" fill="none" fill-rule="evenodd"/><text font-family="Times New Roman,Times New Roman_MSFontService,sans-serif" font-weight="400" font-size="64" transform="matrix(1 0 0 1 1697.36 1414)">AND</text><path d="M3.37491-0.652998 57.6071 279.636 50.8572 280.942-3.37491 0.652998ZM66.8611 273.177 58.5855 302.789 39.8619 278.401Z" transform="matrix(-1 0 0 1 1862.09 1042.5)"/><path d="M1685.77 1254.45 1707.41 1322.19 1700.86 1324.28 1679.23 1256.55ZM1715.84 1314.68 1711.11 1345.06 1689.64 1323.05Z"/><path d="M1953.5 1387.5C1953.5 1351.6 1982.6 1322.5 2018.5 1322.5 2054.4 1322.5 2083.5 1351.6 2083.5 1387.5 2083.5 1423.4 2054.4 1452.5 2018.5 1452.5 1982.6 1452.5 1953.5 1423.4 1953.5 1387.5Z" stroke="#000000" stroke-width="6.875" stroke-miterlimit="8" fill="none" fill-rule="evenodd"/><text font-family="Times New Roman,Times New Roman_MSFontService,sans-serif" font-weight="400" font-size="83" transform="matrix(1 0 0 1 1997.5 1418)">0</text><path d="M1823.5 1572.5C1823.5 1536.6 1852.6 1507.5 1888.5 1507.5 1924.4 1507.5 1953.5 1536.6 1953.5 1572.5 1953.5 1608.4 1924.4 1637.5 1888.5 1637.5 1852.6 1637.5 1823.5 1608.4 1823.5 1572.5Z" stroke="#000000" stroke-width="6.875" stroke-miterlimit="8" fill="none" fill-rule="evenodd"/><text font-family="Times New Roman,Times New Roman_MSFontService,sans-serif" font-weight="400" font-size="73" transform="matrix(1 0 0 1 1839.51 1599)">EQ</text><path d="M2.27921-2.57325 69.1115 56.6224 64.553 61.7689-2.27921 2.57325ZM72.5181 45.8637 83.9872 74.3904 54.2844 66.4497Z" transform="matrix(-1 0 0 1 2018.49 1452.5)"/><path d="M1759.69 1453.85 1827.63 1509.93 1823.25 1515.24 1755.31 1459.15ZM1830.66 1499.06 1843.11 1527.17 1813.15 1520.27Z"/><path d="M2813.5 1570.5C2813.5 1534.6 2842.6 1505.5 2878.5 1505.5 2914.4 1505.5 2943.5 1534.6 2943.5 1570.5 2943.5 1606.4 2914.4 1635.5 2878.5 1635.5 2842.6 1635.5 2813.5 1606.4 2813.5 1570.5Z" stroke="#000000" stroke-width="6.875" stroke-miterlimit="8" fill="none" fill-rule="evenodd"/><text font-family="Times New Roman,Times New Roman_MSFontService,sans-serif" font-weight="400" font-size="64" transform="matrix(1 0 0 1 2820.4 1594)">XOR</text><path d="M2658.5 1387.5C2658.5 1351.6 2687.6 1322.5 2723.5 1322.5 2759.4 1322.5 2788.5 1351.6 2788.5 1387.5 2788.5 1423.4 2759.4 1452.5 2723.5 1452.5 2687.6 1452.5 2658.5 1423.4 2658.5 1387.5Z" stroke="#000000" stroke-width="6.875" stroke-miterlimit="8" fill="none" fill-rule="evenodd"/><text font-family="Times New Roman,Times New Roman_MSFontService,sans-serif" font-weight="400" font-size="55" transform="matrix(1 0 0 1 2666.98 1407)">LSHR</text><rect x="2556.5" y="912.5" width="124" height="124" stroke="#000000" stroke-width="6.875" stroke-miterlimit="8" fill="none"/><text font-family="Times New Roman,Times New Roman_MSFontService,sans-serif" font-weight="400" font-size="83" transform="matrix(1 0 0 1 2576.79 1004)">$1</text><rect x="2972.5" y="911.5" width="123" height="123" stroke="#000000" stroke-width="6.875" stroke-miterlimit="8" fill="none"/><text font-family="Times New Roman,Times New Roman_MSFontService,sans-serif" font-weight="400" font-size="83" transform="matrix(1 0 0 1 2992.22 1003)">$2</text><path d="M2725.41 1449.64 2814.96 1509.29 2811.15 1515.02 2721.59 1455.36ZM2816.86 1498.17 2832.12 1524.86 2801.61 1521.06Z"/><path d="M2621.94 1036.5 2621.94 1100.56 2615.06 1100.56 2615.06 1036.5ZM2632.25 1095.98 2618.5 1123.48 2604.75 1095.98Z"/><path d="M2621.35 1250.59 2668.04 1320.22 2662.32 1324.04 2615.64 1254.41ZM2674.05 1310.67 2677.94 1341.17 2651.21 1325.98Z"/><path d="M2553.5 1188C2553.5 1152.38 2582.6 1123.5 2618.5 1123.5 2654.4 1123.5 2683.5 1152.38 2683.5 1188 2683.5 1223.62 2654.4 1252.5 2618.5 1252.5 2582.6 1252.5 2553.5 1223.62 2553.5 1188Z" stroke="#000000" stroke-width="6.875" stroke-miterlimit="8" fill="none" fill-rule="evenodd"/><text font-family="Times New Roman,Times New Roman_MSFontService,sans-serif" font-weight="400" font-size="83" transform="matrix(1 0 0 1 2576.79 1218)">#1</text><path d="M2757.5 1188C2757.5 1152.38 2786.6 1123.5 2822.5 1123.5 2858.4 1123.5 2887.5 1152.38 2887.5 1188 2887.5 1223.62 2858.4 1252.5 2822.5 1252.5 2786.6 1252.5 2757.5 1223.62 2757.5 1188Z" stroke="#000000" stroke-width="6.875" stroke-miterlimit="8" fill="none" fill-rule="evenodd"/><text font-family="Times New Roman,Times New Roman_MSFontService,sans-serif" font-weight="400" font-size="83" transform="matrix(1 0 0 1 2781.19 1218)">#2</text><path d="M2825.94 1039.5 2825.94 1100.32 2819.06 1100.32 2819.06 1039.5ZM2836.25 1095.73 2822.5 1123.23 2808.75 1095.73Z"/><path d="M2.94927-1.76585 44.2645 67.2375 38.366 70.7692-2.94927 1.76585ZM50.7579 58.0076 53.0876 88.6651 27.1637 72.1344Z" transform="matrix(-1 0 0 1 2822.59 1252.5)"/><path d="M3.35474-0.749758 107.915 467.098 101.206 468.598-3.35474 0.749758ZM116.98 460.375 109.559 490.212 90.1416 466.374Z" transform="matrix(-1 0 0 1 3034.06 1034.5)"/><path d="M2757.5 974.5C2757.5 938.602 2786.6 909.5 2822.5 909.5 2858.4 909.5 2887.5 938.602 2887.5 974.5 2887.5 1010.4 2858.4 1039.5 2822.5 1039.5 2786.6 1039.5 2757.5 1010.4 2757.5 974.5Z" stroke="#000000" stroke-width="6.875" stroke-miterlimit="8" fill="none" fill-rule="evenodd"/><text font-family="Times New Roman,Times New Roman_MSFontService,sans-serif" font-weight="400" font-size="83" transform="matrix(1 0 0 1 2801.81 1004)">8</text><text font-family="Times New Roman,Times New Roman_MSFontService,sans-serif" font-weight="400" font-size="83" transform="matrix(1 0 0 1 477.006 1769)">$1 INV $2 $3 AND3 $1</text><text font-family="Times New Roman,Times New Roman_MSFontService,sans-serif" font-weight="400" font-size="83" transform="matrix(1 0 0 1 1498.76 1769)">-</text><text font-family="Times New Roman,Times New Roman_MSFontService,sans-serif" font-weight="400" font-size="83" transform="matrix(1 0 0 1 1526.26 1769)">1 ADD @1 AND 0 EQ</text><text font-family="Times New Roman,Times New Roman_MSFontService,sans-serif" font-weight="400" font-size="83" transform="matrix(1 0 0 1 2541.1 1771)">$1 8 LSHR $2 XOR</text></g></svg>