<svg width="3746" height="1492" xmlns="http://www.w3.org/2000/svg" xmlns:xlink="http://www.w3.org/1999/xlink" xml:space="preserve" overflow="hidden"><defs><clipPath id="clip0"><rect x="328" y="768" width="3746" height="1492"/></clipPath><clipPath id="clip1"><rect x="1970" y="737" width="421" height="617"/></clipPath><clipPath id="clip2"><rect x="2810" y="737" width="420" height="617"/></clipPath><clipPath id="clip3"><rect x="3649" y="737" width="420" height="617"/></clipPath><clipPath id="clip4"><rect x="1551" y="770" width="420" height="918"/></clipPath><clipPath id="clip5"><rect x="1970" y="770" width="421" height="918"/></clipPath><clipPath id="clip6"><rect x="2390" y="770" width="421" height="918"/></clipPath><clipPath id="clip7"><rect x="2810" y="770" width="420" height="918"/></clipPath><clipPath id="clip8"><rect x="3229" y="770" width="421" height="918"/></clipPath><clipPath id="clip9"><rect x="3649" y="770" width="420" height="918"/></clipPath><clipPath id="clip10"><rect x="1551" y="953" width="420" height="918"/></clipPath><clipPath id="clip11"><rect x="1970" y="953" width="421" height="918"/></clipPath><clipPath id="clip12"><rect x="2390" y="953" width="421" height="918"/></clipPath><clipPath id="clip13"><rect x="2810" y="953" width="420" height="918"/></clipPath><clipPath id="clip14"><rect x="3229" y="953" width="421" height="918"/></clipPath><clipPath id="clip15"><rect x="3649" y="953" width="420" height="918"/></clipPath><clipPath id="clip16"><rect x="1551" y="1136" width="420" height="918"/></clipPath><clipPath id="clip17"><rect x="1970" y="1136" width="421" height="918"/></clipPath><clipPath id="clip18"><rect x="2390" y="1136" width="421" height="918"/></clipPath><clipPath id="clip19"><rect x="2810" y="1136" width="420" height="918"/></clipPath><clipPath id="clip20"><rect x="3229" y="1136" width="421" height="918"/></clipPath><clipPath id="clip21"><rect x="3649" y="1136" width="420" height="918"/></clipPath><clipPath id="clip22"><rect x="1551" y="1319" width="420" height="918"/></clipPath><clipPath id="clip23"><rect x="1970" y="1319" width="421" height="918"/></clipPath><clipPath id="clip24"><rect x="2390" y="1319" width="421" height="918"/></clipPath><clipPath id="clip25"><rect x="2810" y="1319" width="420" height="918"/></clipPath><clipPath id="clip26"><rect x="3229" y="1319" width="421" height="918"/></clipPath><clipPath id="clip27"><rect x="3649" y="1319" width="420" height="918"/></clipPath><clipPath id="clip28"><rect x="1551" y="1502" width="420" height="918"/></clipPath><clipPath id="clip29"><rect x="1970" y="1502" width="421" height="918"/></clipPath><clipPath id="clip30"><rect x="2390" y="1502" width="421" height="918"/></clipPath><clipPath id="clip31"><rect x="2810" y="1502" width="420" height="918"/></clipPath><clipPath id="clip32"><rect x="3229" y="1502" width="421" height="918"/></clipPath><clipPath id="clip33"><rect x="3649" y="1502" width="420" height="918"/></clipPath><clipPath id="clip34"><rect x="331" y="1798" width="747" height="694"/></clipPath><clipPath id="clip35"><rect x="1551" y="1686" width="420" height="918"/></clipPath><clipPath id="clip36"><rect x="1970" y="1686" width="421" height="918"/></clipPath><clipPath id="clip37"><rect x="2390" y="1686" width="421" height="918"/></clipPath><clipPath id="clip38"><rect x="2810" y="1686" width="420" height="918"/></clipPath><clipPath id="clip39"><rect x="3229" y="1686" width="421" height="918"/></clipPath><clipPath id="clip40"><rect x="3649" y="1686" width="420" height="918"/></clipPath></defs><g clip-path="url(#clip0)" transform="translate(-328 -768)"><path d="M331.13 770.816 1077.97 770.816 1077.97 1137.16 331.13 1137.16Z" fill="#CFCFCF" fill-rule="evenodd"/><path d="M1077.97 770.816 1551.26 770.816 1551.26 1137.16 1077.97 1137.16Z" fill="#CFCFCF" fill-rule="evenodd"/><path d="M1551.26 770.816 2390.46 770.816 2390.46 953.987 1551.26 953.987Z" fill="#CFCFCF" fill-rule="evenodd"/><path d="M2390.46 770.816 3229.67 770.816 3229.67 953.987 2390.46 953.987Z" fill="#CFCFCF" fill-rule="evenodd"/><path d="M3229.67 770.816 4068.87 770.816 4068.87 953.987 3229.67 953.987Z" fill="#CFCFCF" fill-rule="evenodd"/><path d="M1551.26 953.987 1970.86 953.987 1970.86 1137.16 1551.26 1137.16Z" fill="#E9E9E9" fill-rule="evenodd"/><path d="M1970.86 953.987 2390.46 953.987 2390.46 1137.16 1970.86 1137.16Z" fill="#E9E9E9" fill-rule="evenodd"/><path d="M2390.46 953.987 2810.07 953.987 2810.07 1137.16 2390.46 1137.16Z" fill="#E9E9E9" fill-rule="evenodd"/><path d="M2810.07 953.987 3229.67 953.987 3229.67 1137.16 2810.07 1137.16Z" fill="#E9E9E9" fill-rule="evenodd"/><path d="M3229.67 953.987 3649.27 953.987 3649.27 1137.16 3229.67 1137.16Z" fill="#E9E9E9" fill-rule="evenodd"/><path d="M3649.27 953.987 4068.87 953.987 4068.87 1137.16 3649.27 1137.16Z" fill="#E9E9E9" fill-rule="evenodd"/><path d="M331.13 1137.16 1077.97 1137.16 1077.97 1320.33 331.13 1320.33Z" fill="#CFCFCF" fill-rule="evenodd"/><path d="M1077.97 1137.16 1551.26 1137.16 1551.26 1320.33 1077.97 1320.33Z" fill="#CFCFCF" fill-rule="evenodd"/><path d="M1551.26 1137.16 1970.86 1137.16 1970.86 1320.33 1551.26 1320.33Z" fill="#CFCFCF" fill-rule="evenodd"/><path d="M1970.86 1137.16 2390.46 1137.16 2390.46 1320.33 1970.86 1320.33Z" fill="#CFCFCF" fill-rule="evenodd"/><path d="M2390.46 1137.16 2810.07 1137.16 2810.07 1320.33 2390.46 1320.33Z" fill="#CFCFCF" fill-rule="evenodd"/><path d="M2810.07 1137.16 3229.67 1137.16 3229.67 1320.33 2810.07 1320.33Z" fill="#CFCFCF" fill-rule="evenodd"/><path d="M3229.67 1137.16 3649.27 1137.16 3649.27 1320.33 3229.67 1320.33Z" fill="#CFCFCF" fill-rule="evenodd"/><path d="M3649.27 1137.16 4068.87 1137.16 4068.87 1320.33 3649.27 1320.33Z" fill="#CFCFCF" fill-rule="evenodd"/><path d="M331.13 1320.33 1077.97 1320.33 1077.97 1503.5 331.13 1503.5Z" fill="#E9E9E9" fill-rule="evenodd"/><path d="M1077.97 1320.33 1551.26 1320.33 1551.26 1503.5 1077.97 1503.5Z" fill="#E9E9E9" fill-rule="evenodd"/><path d="M1551.26 1320.33 1970.86 1320.33 1970.86 1503.5 1551.26 1503.5Z" fill="#E9E9E9" fill-rule="evenodd"/><path d="M1970.86 1320.33 2390.46 1320.33 2390.46 1503.5 1970.86 1503.5Z" fill="#E9E9E9" fill-rule="evenodd"/><path d="M2390.46 1320.33 2810.07 1320.33 2810.07 1503.5 2390.46 1503.5Z" fill="#E9E9E9" fill-rule="evenodd"/><path d="M2810.07 1320.33 3229.67 1320.33 3229.67 1503.5 2810.07 1503.5Z" fill="#E9E9E9" fill-rule="evenodd"/><path d="M3229.67 1320.33 3649.27 1320.33 3649.27 1503.5 3229.67 1503.5Z" fill="#E9E9E9" fill-rule="evenodd"/><path d="M3649.27 1320.33 4068.87 1320.33 4068.87 1503.5 3649.27 1503.5Z" fill="#E9E9E9" fill-rule="evenodd"/><path d="M331.13 1503.5 1077.97 1503.5 1077.97 1686.67 331.13 1686.67Z" fill="#CFCFCF" fill-rule="evenodd"/><path d="M1077.97 1503.5 1551.26 1503.5 1551.26 1686.67 1077.97 1686.67Z" fill="#CFCFCF" fill-rule="evenodd"/><path d="M1551.26 1503.5 1970.86 1503.5 1970.86 1686.67 1551.26 1686.67Z" fill="#CFCFCF" fill-rule="evenodd"/><path d="M1970.86 1503.5 2390.46 1503.5 2390.46 1686.67 1970.86 1686.67Z" fill="#CFCFCF" fill-rule="evenodd"/><path d="M2390.46 1503.5 2810.07 1503.5 2810.07 1686.67 2390.46 1686.67Z" fill="#CFCFCF" fill-rule="evenodd"/><path d="M2810.07 1503.5 3229.67 1503.5 3229.67 1686.67 2810.07 1686.67Z" fill="#CFCFCF" fill-rule="evenodd"/><path d="M3229.67 1503.5 3649.27 1503.5 3649.27 1686.67 3229.67 1686.67Z" fill="#CFCFCF" fill-rule="evenodd"/><path d="M3649.27 1503.5 4068.87 1503.5 4068.87 1686.67 3649.27 1686.67Z" fill="#CFCFCF" fill-rule="evenodd"/><path d="M331.13 1686.67 1077.97 1686.67 1077.97 1869.84 331.13 1869.84Z" fill="#E9E9E9" fill-rule="evenodd"/><path d="M1077.97 1686.67 1551.26 1686.67 1551.26 1869.84 1077.97 1869.84Z" fill="#E9E9E9" fill-rule="evenodd"/><path d="M1551.26 1686.67 1970.86 1686.67 1970.86 1869.84 1551.26 1869.84Z" fill="#E9E9E9" fill-rule="evenodd"/><path d="M1970.86 1686.67 2390.46 1686.67 2390.46 1869.84 1970.86 1869.84Z" fill="#E9E9E9" fill-rule="evenodd"/><path d="M2390.46 1686.67 2810.07 1686.67 2810.07 1869.84 2390.46 1869.84Z" fill="#E9E9E9" fill-rule="evenodd"/><path d="M2810.07 1686.67 3229.67 1686.67 3229.67 1869.84 2810.07 1869.84Z" fill="#E9E9E9" fill-rule="evenodd"/><path d="M3229.67 1686.67 3649.27 1686.67 3649.27 1869.84 3229.67 1869.84Z" fill="#E9E9E9" fill-rule="evenodd"/><path d="M3649.27 1686.67 4068.87 1686.67 4068.87 1869.84 3649.27 1869.84Z" fill="#E9E9E9" fill-rule="evenodd"/><path d="M331.13 1869.84 1077.97 1869.84 1077.97 2053.01 331.13 2053.01Z" fill="#CFCFCF" fill-rule="evenodd"/><path d="M1077.97 1869.84 1551.26 1869.84 1551.26 2053.01 1077.97 2053.01Z" fill="#CFCFCF" fill-rule="evenodd"/><path d="M1551.26 1869.84 1970.86 1869.84 1970.86 2053.01 1551.26 2053.01Z" fill="#CFCFCF" fill-rule="evenodd"/><path d="M1970.86 1869.84 2390.46 1869.84 2390.46 2053.01 1970.86 2053.01Z" fill="#CFCFCF" fill-rule="evenodd"/><path d="M2390.46 1869.84 2810.07 1869.84 2810.07 2053.01 2390.46 2053.01Z" fill="#CFCFCF" fill-rule="evenodd"/><path d="M2810.07 1869.84 3229.67 1869.84 3229.67 2053.01 2810.07 2053.01Z" fill="#CFCFCF" fill-rule="evenodd"/><path d="M3229.67 1869.84 3649.27 1869.84 3649.27 2053.01 3229.67 2053.01Z" fill="#CFCFCF" fill-rule="evenodd"/><path d="M3649.27 1869.84 4068.87 1869.84 4068.87 2053.01 3649.27 2053.01Z" fill="#CFCFCF" fill-rule="evenodd"/><path d="M331.13 2053.01 1077.97 2053.01 1077.97 2236.18 331.13 2236.18Z" fill="#E9E9E9" fill-rule="evenodd"/><path d="M1077.97 2053.01 1551.26 2053.01 1551.26 2236.18 1077.97 2236.18Z" fill="#E9E9E9" fill-rule="evenodd"/><path d="M1551.26 2053.01 1970.86 2053.01 1970.86 2236.18 1551.26 2236.18Z" fill="#E9E9E9" fill-rule="evenodd"/><path d="M1970.86 2053.01 2390.46 2053.01 2390.46 2236.18 1970.86 2236.18Z" fill="#E9E9E9" fill-rule="evenodd"/><path d="M2390.46 2053.01 2810.07 2053.01 2810.07 2236.18 2390.46 2236.18Z" fill="#E9E9E9" fill-rule="evenodd"/><path d="M2810.07 2053.01 3229.67 2053.01 3229.67 2236.18 2810.07 2236.18Z" fill="#E9E9E9" fill-rule="evenodd"/><path d="M3229.67 2053.01 3649.27 2053.01 3649.27 2236.18 3229.67 2236.18Z" fill="#E9E9E9" fill-rule="evenodd"/><path d="M3649.27 2053.01 4068.87 2053.01 4068.87 2236.18 3649.27 2236.18Z" fill="#E9E9E9" fill-rule="evenodd"/><path d="M1077.97 768.525 1077.97 2238.48" stroke="#FFFFFF" stroke-width="4.58333" stroke-linejoin="round" stroke-miterlimit="10" fill="none" fill-rule="evenodd"/><path d="M1551.26 768.525 1551.26 2238.48" stroke="#FFFFFF" stroke-width="4.58333" stroke-linejoin="round" stroke-miterlimit="10" fill="none" fill-rule="evenodd"/><path d="M1970.86 951.696 1970.86 2238.48" stroke="#FFFFFF" stroke-width="4.58333" stroke-linejoin="round" stroke-miterlimit="10" fill="none" fill-rule="evenodd"/><path d="M2390.46 768.525 2390.46 2238.48" stroke="#FFFFFF" stroke-width="4.58333" stroke-linejoin="round" stroke-miterlimit="10" fill="none" fill-rule="evenodd"/><path d="M2810.07 951.696 2810.07 2238.48" stroke="#FFFFFF" stroke-width="4.58333" stroke-linejoin="round" stroke-miterlimit="10" fill="none" fill-rule="evenodd"/><path d="M3229.67 768.525 3229.67 2238.48" stroke="#FFFFFF" stroke-width="4.58333" stroke-linejoin="round" stroke-miterlimit="10" fill="none" fill-rule="evenodd"/><path d="M3649.27 951.696 3649.27 2238.48" stroke="#FFFFFF" stroke-width="4.58333" stroke-linejoin="round" stroke-miterlimit="10" fill="none" fill-rule="evenodd"/><path d="M1548.97 953.987 4071.16 953.987" stroke="#FFFFFF" stroke-width="4.58333" stroke-linejoin="round" stroke-miterlimit="10" fill="none" fill-rule="evenodd"/><path d="M328.839 1137.16 4071.16 1137.16" stroke="#FFFFFF" stroke-width="4.58333" stroke-linejoin="round" stroke-miterlimit="10" fill="none" fill-rule="evenodd"/><path d="M328.839 1320.33 4071.16 1320.33" stroke="#FFFFFF" stroke-width="4.58333" stroke-linejoin="round" stroke-miterlimit="10" fill="none" fill-rule="evenodd"/><path d="M328.839 1503.5 4071.16 1503.5" stroke="#FFFFFF" stroke-width="4.58333" stroke-linejoin="round" stroke-miterlimit="10" fill="none" fill-rule="evenodd"/><path d="M328.839 1686.67 4071.16 1686.67" stroke="#FFFFFF" stroke-width="4.58333" stroke-linejoin="round" stroke-miterlimit="10" fill="none" fill-rule="evenodd"/><path d="M328.839 1869.84 4071.16 1869.84" stroke="#FFFFFF" stroke-width="4.58333" stroke-linejoin="round" stroke-miterlimit="10" fill="none" fill-rule="evenodd"/><path d="M328.839 2053.01 4071.16 2053.01" stroke="#FFFFFF" stroke-width="4.58333" stroke-linejoin="round" stroke-miterlimit="10" fill="none" fill-rule="evenodd"/><path d="M331.13 768.525 331.13 2238.48" stroke="#FFFFFF" stroke-width="4.58333" stroke-linejoin="round" stroke-miterlimit="10" fill="none" fill-rule="evenodd"/><path d="M4068.87 768.525 4068.87 2238.48" stroke="#FFFFFF" stroke-width="4.58333" stroke-linejoin="round" stroke-miterlimit="10" fill="none" fill-rule="evenodd"/><path d="M328.839 770.816 4071.16 770.816" stroke="#FFFFFF" stroke-width="4.58333" stroke-linejoin="round" stroke-miterlimit="10" fill="none" fill-rule="evenodd"/><path d="M328.839 2236.18 4071.16 2236.18" stroke="#FFFFFF" stroke-width="4.58333" stroke-linejoin="round" stroke-miterlimit="10" fill="none" fill-rule="evenodd"/><text fill="#262626" font-family="Microsoft YaHei,Microsoft YaHei_MSFontService,sans-serif" font-weight="700" font-size="83" transform="matrix(1 0 0 1 539.551 984)">热点函数</text><text fill="#262626" font-family="Microsoft YaHei,Microsoft YaHei_MSFontService,sans-serif" font-weight="700" font-size="83" transform="matrix(1 0 0 1 1232.12 984)">领域</text><text fill="#262626" font-family="Arial,Arial_MSFontService,sans-serif" font-weight="700" font-size="83" transform="matrix(1 0 0 1 1842.53 893)">2</text><text fill="#262626" font-family="Microsoft YaHei,Microsoft YaHei_MSFontService,sans-serif" font-weight="700" font-size="83" transform="matrix(1 0 0 1 1888.36 893)">入</text><text fill="#262626" font-family="Arial,Arial_MSFontService,sans-serif" font-weight="700" font-size="83" transform="matrix(1 0 0 1 1970.86 893)">1</text><text fill="#262626" font-family="Microsoft YaHei,Microsoft YaHei_MSFontService,sans-serif" font-weight="700" font-size="83" transform="matrix(1 0 0 1 2016.7 893)">出</text><text fill="#262626" font-family="Arial,Arial_MSFontService,sans-serif" font-weight="700" font-size="83" transform="matrix(1 0 0 1 2681.73 893)">3</text><text fill="#262626" font-family="Microsoft YaHei,Microsoft YaHei_MSFontService,sans-serif" font-weight="700" font-size="83" transform="matrix(1 0 0 1 2727.57 893)">入</text><text fill="#262626" font-family="Arial,Arial_MSFontService,sans-serif" font-weight="700" font-size="83" transform="matrix(1 0 0 1 2810.07 893)">1</text><text fill="#262626" font-family="Microsoft YaHei,Microsoft YaHei_MSFontService,sans-serif" font-weight="700" font-size="83" transform="matrix(1 0 0 1 2855.9 893)">出</text><text fill="#262626" font-family="Arial,Arial_MSFontService,sans-serif" font-weight="700" font-size="83" transform="matrix(1 0 0 1 3520.93 893)">4</text><text fill="#262626" font-family="Microsoft YaHei,Microsoft YaHei_MSFontService,sans-serif" font-weight="700" font-size="83" transform="matrix(1 0 0 1 3566.77 893)">入</text><text fill="#262626" font-family="Arial,Arial_MSFontService,sans-serif" font-weight="700" font-size="83" transform="matrix(1 0 0 1 3649.27 893)">1</text><text fill="#262626" font-family="Microsoft YaHei,Microsoft YaHei_MSFontService,sans-serif" font-weight="700" font-size="83" transform="matrix(1 0 0 1 3695.1 893)">出</text><text fill="#262626" font-family="Microsoft YaHei,Microsoft YaHei_MSFontService,sans-serif" font-weight="700" font-size="83" transform="matrix(1 0 0 1 1678.56 1076)">用时</text><g clip-path="url(#clip1)"><text fill="#262626" font-family="Microsoft YaHei,Microsoft YaHei_MSFontService,sans-serif" font-weight="700" font-size="73" transform="matrix(1 0 0 1 1997.33 1073)">生成指令数</text></g><text fill="#262626" font-family="Microsoft YaHei,Microsoft YaHei_MSFontService,sans-serif" font-weight="700" font-size="83" transform="matrix(1 0 0 1 2517.76 1076)">用时</text><g clip-path="url(#clip2)"><text fill="#262626" font-family="Microsoft YaHei,Microsoft YaHei_MSFontService,sans-serif" font-weight="700" font-size="73" transform="matrix(1 0 0 1 2836.53 1073)">生成指令数</text></g><text fill="#262626" font-family="Microsoft YaHei,Microsoft YaHei_MSFontService,sans-serif" font-weight="700" font-size="83" transform="matrix(1 0 0 1 3356.97 1076)">用时</text><g clip-path="url(#clip3)"><text fill="#262626" font-family="Microsoft YaHei,Microsoft YaHei_MSFontService,sans-serif" font-weight="700" font-size="73" transform="matrix(1 0 0 1 3675.74 1073)">生成指令数</text></g><text fill="#262626" font-family="Arial,Arial_MSFontService,sans-serif" font-weight="400" font-size="83" transform="matrix(1 0 0 1 493.718 1259)">BF_encrypt</text><text fill="#262626" font-family="Microsoft YaHei,Microsoft YaHei_MSFontService,sans-serif" font-weight="400" font-size="83" transform="matrix(1 0 0 1 1149.62 1259)">对称加密</text><g clip-path="url(#clip4)"><text fill="#262626" font-family="Microsoft YaHei,Microsoft YaHei_MSFontService,sans-serif" font-weight="400" font-size="83" transform="matrix(1 0 0 1 1733.56 1274)">26ms</text></g><g clip-path="url(#clip5)"><text fill="#262626" font-family="Microsoft YaHei,Microsoft YaHei_MSFontService,sans-serif" font-weight="400" font-size="83" transform="matrix(1 0 0 1 2268.89 1274)">31</text></g><text fill="#262626" font-family="Microsoft YaHei,Microsoft YaHei_MSFontService,sans-serif" font-weight="400" font-size="83" transform="matrix(1 0 0 1 2572.77 1274)">39</text><g clip-path="url(#clip6)"><text fill="#262626" font-family="Microsoft YaHei,Microsoft YaHei_MSFontService,sans-serif" font-weight="400" font-size="83" transform="matrix(1 0 0 1 2669.02 1274)">ms</text></g><g clip-path="url(#clip7)"><text fill="#262626" font-family="Microsoft YaHei,Microsoft YaHei_MSFontService,sans-serif" font-weight="400" font-size="83" transform="matrix(1 0 0 1 3108.1 1274)">46</text></g><text fill="#262626" font-family="Microsoft YaHei,Microsoft YaHei_MSFontService,sans-serif" font-weight="400" font-size="83" transform="matrix(1 0 0 1 3411.97 1274)">64</text><g clip-path="url(#clip8)"><text fill="#262626" font-family="Microsoft YaHei,Microsoft YaHei_MSFontService,sans-serif" font-weight="400" font-size="83" transform="matrix(1 0 0 1 3508.22 1274)">ms</text></g><g clip-path="url(#clip9)"><text fill="#262626" font-family="Microsoft YaHei,Microsoft YaHei_MSFontService,sans-serif" font-weight="400" font-size="83" transform="matrix(1 0 0 1 3947.3 1274)">54</text></g><text fill="#262626" font-family="Arial,Arial_MSFontService,sans-serif" font-weight="400" font-size="83" transform="matrix(1 0 0 1 441.01 1442)">sha_transform</text><text fill="#262626" font-family="Microsoft YaHei,Microsoft YaHei_MSFontService,sans-serif" font-weight="400" font-size="83" transform="matrix(1 0 0 1 1149.62 1442)">散列加密</text><text fill="#262626" font-family="Microsoft YaHei,Microsoft YaHei_MSFontService,sans-serif" font-weight="400" font-size="83" transform="matrix(1 0 0 1 1733.56 1457)">19</text><g clip-path="url(#clip10)"><text fill="#262626" font-family="Microsoft YaHei,Microsoft YaHei_MSFontService,sans-serif" font-weight="400" font-size="83" transform="matrix(1 0 0 1 1829.81 1457)">ms</text></g><g clip-path="url(#clip11)"><text fill="#262626" font-family="Microsoft YaHei,Microsoft YaHei_MSFontService,sans-serif" font-weight="400" font-size="83" transform="matrix(1 0 0 1 2268.89 1457)">57</text></g><text fill="#262626" font-family="Microsoft YaHei,Microsoft YaHei_MSFontService,sans-serif" font-weight="400" font-size="83" transform="matrix(1 0 0 1 2572.77 1457)">23</text><g clip-path="url(#clip12)"><text fill="#262626" font-family="Microsoft YaHei,Microsoft YaHei_MSFontService,sans-serif" font-weight="400" font-size="83" transform="matrix(1 0 0 1 2669.02 1457)">ms</text></g><g clip-path="url(#clip13)"><text fill="#262626" font-family="Microsoft YaHei,Microsoft YaHei_MSFontService,sans-serif" font-weight="400" font-size="83" transform="matrix(1 0 0 1 3059.97 1457)">119</text></g><text fill="#262626" font-family="Microsoft YaHei,Microsoft YaHei_MSFontService,sans-serif" font-weight="400" font-size="83" transform="matrix(1 0 0 1 3411.97 1457)">34</text><g clip-path="url(#clip14)"><text fill="#262626" font-family="Microsoft YaHei,Microsoft YaHei_MSFontService,sans-serif" font-weight="400" font-size="83" transform="matrix(1 0 0 1 3508.22 1457)">ms</text></g><g clip-path="url(#clip15)"><text fill="#262626" font-family="Microsoft YaHei,Microsoft YaHei_MSFontService,sans-serif" font-weight="400" font-size="83" transform="matrix(1 0 0 1 3899.17 1457)">193</text></g><text fill="#262626" font-family="Arial,Arial_MSFontService,sans-serif" font-weight="400" font-size="83" transform="matrix(1 0 0 1 603.718 1626)">dct32</text><text fill="#262626" font-family="Microsoft YaHei,Microsoft YaHei_MSFontService,sans-serif" font-weight="400" font-size="83" transform="matrix(1 0 0 1 1149.62 1626)">音频解码</text><text fill="#262626" font-family="Microsoft YaHei,Microsoft YaHei_MSFontService,sans-serif" font-weight="400" font-size="83" transform="matrix(1 0 0 1 1733.56 1641)">63</text><g clip-path="url(#clip16)"><text fill="#262626" font-family="Microsoft YaHei,Microsoft YaHei_MSFontService,sans-serif" font-weight="400" font-size="83" transform="matrix(1 0 0 1 1829.81 1641)">ms</text></g><g clip-path="url(#clip17)"><text fill="#262626" font-family="Microsoft YaHei,Microsoft YaHei_MSFontService,sans-serif" font-weight="400" font-size="83" transform="matrix(1 0 0 1 2220.77 1641)">461</text></g><text fill="#262626" font-family="Microsoft YaHei,Microsoft YaHei_MSFontService,sans-serif" font-weight="400" font-size="83" transform="matrix(1 0 0 1 2524.64 1641)">122</text><g clip-path="url(#clip18)"><text fill="#262626" font-family="Microsoft YaHei,Microsoft YaHei_MSFontService,sans-serif" font-weight="400" font-size="83" transform="matrix(1 0 0 1 2669.02 1641)">ms</text></g><g clip-path="url(#clip19)"><text fill="#262626" font-family="Microsoft YaHei,Microsoft YaHei_MSFontService,sans-serif" font-weight="400" font-size="83" transform="matrix(1 0 0 1 3059.97 1641)">947</text></g><text fill="#262626" font-family="Microsoft YaHei,Microsoft YaHei_MSFontService,sans-serif" font-weight="400" font-size="83" transform="matrix(1 0 0 1 3363.84 1641)">397</text><g clip-path="url(#clip20)"><text fill="#262626" font-family="Microsoft YaHei,Microsoft YaHei_MSFontService,sans-serif" font-weight="400" font-size="83" transform="matrix(1 0 0 1 3508.22 1641)">ms</text></g><g clip-path="url(#clip21)"><text fill="#262626" font-family="Microsoft YaHei,Microsoft YaHei_MSFontService,sans-serif" font-weight="400" font-size="83" transform="matrix(1 0 0 1 3851.05 1641)">1754</text></g><text fill="#262626" font-family="Arial,Arial_MSFontService,sans-serif" font-weight="400" font-size="83" transform="matrix(1 0 0 1 528.093 1809)">get_block</text><text fill="#262626" font-family="Microsoft YaHei,Microsoft YaHei_MSFontService,sans-serif" font-weight="400" font-size="83" transform="matrix(1 0 0 1 1149.62 1809)">视频解码</text><text fill="#262626" font-family="Microsoft YaHei,Microsoft YaHei_MSFontService,sans-serif" font-weight="400" font-size="83" transform="matrix(1 0 0 1 1733.56 1824)">31</text><g clip-path="url(#clip22)"><text fill="#262626" font-family="Microsoft YaHei,Microsoft YaHei_MSFontService,sans-serif" font-weight="400" font-size="83" transform="matrix(1 0 0 1 1829.81 1824)">ms</text></g><g clip-path="url(#clip23)"><text fill="#262626" font-family="Microsoft YaHei,Microsoft YaHei_MSFontService,sans-serif" font-weight="400" font-size="83" transform="matrix(1 0 0 1 2268.89 1824)">71</text></g><text fill="#262626" font-family="Microsoft YaHei,Microsoft YaHei_MSFontService,sans-serif" font-weight="400" font-size="83" transform="matrix(1 0 0 1 2572.77 1824)">59</text><g clip-path="url(#clip24)"><text fill="#262626" font-family="Microsoft YaHei,Microsoft YaHei_MSFontService,sans-serif" font-weight="400" font-size="83" transform="matrix(1 0 0 1 2669.02 1824)">ms</text></g><g clip-path="url(#clip25)"><text fill="#262626" font-family="Microsoft YaHei,Microsoft YaHei_MSFontService,sans-serif" font-weight="400" font-size="83" transform="matrix(1 0 0 1 3059.97 1824)">150</text></g><text fill="#262626" font-family="Microsoft YaHei,Microsoft YaHei_MSFontService,sans-serif" font-weight="400" font-size="83" transform="matrix(1 0 0 1 3363.84 1824)">195</text><g clip-path="url(#clip26)"><text fill="#262626" font-family="Microsoft YaHei,Microsoft YaHei_MSFontService,sans-serif" font-weight="400" font-size="83" transform="matrix(1 0 0 1 3508.22 1824)">ms</text></g><g clip-path="url(#clip27)"><text fill="#262626" font-family="Microsoft YaHei,Microsoft YaHei_MSFontService,sans-serif" font-weight="400" font-size="83" transform="matrix(1 0 0 1 3899.17 1824)">275</text></g><text fill="#262626" font-family="Arial,Arial_MSFontService,sans-serif" font-weight="400" font-size="83" transform="matrix(1 0 0 1 424.968 1992)">jpeg_idct_islow</text><text fill="#262626" font-family="Microsoft YaHei,Microsoft YaHei_MSFontService,sans-serif" font-weight="400" font-size="83" transform="matrix(1 0 0 1 1149.62 1992)">图片解码</text><text fill="#262626" font-family="Microsoft YaHei,Microsoft YaHei_MSFontService,sans-serif" font-weight="400" font-size="83" transform="matrix(1 0 0 1 1733.56 2007)">24</text><g clip-path="url(#clip28)"><text fill="#262626" font-family="Microsoft YaHei,Microsoft YaHei_MSFontService,sans-serif" font-weight="400" font-size="83" transform="matrix(1 0 0 1 1829.81 2007)">ms</text></g><g clip-path="url(#clip29)"><text fill="#262626" font-family="Microsoft YaHei,Microsoft YaHei_MSFontService,sans-serif" font-weight="400" font-size="83" transform="matrix(1 0 0 1 2268.89 2007)">88</text></g><text fill="#262626" font-family="Microsoft YaHei,Microsoft YaHei_MSFontService,sans-serif" font-weight="400" font-size="83" transform="matrix(1 0 0 1 2572.77 2007)">27</text><g clip-path="url(#clip30)"><text fill="#262626" font-family="Microsoft YaHei,Microsoft YaHei_MSFontService,sans-serif" font-weight="400" font-size="83" transform="matrix(1 0 0 1 2669.02 2007)">ms</text></g><g clip-path="url(#clip31)"><text fill="#262626" font-family="Microsoft YaHei,Microsoft YaHei_MSFontService,sans-serif" font-weight="400" font-size="83" transform="matrix(1 0 0 1 3059.97 2007)">125</text></g><text fill="#262626" font-family="Microsoft YaHei,Microsoft YaHei_MSFontService,sans-serif" font-weight="400" font-size="83" transform="matrix(1 0 0 1 3411.97 2007)">33</text><g clip-path="url(#clip32)"><text fill="#262626" font-family="Microsoft YaHei,Microsoft YaHei_MSFontService,sans-serif" font-weight="400" font-size="83" transform="matrix(1 0 0 1 3508.22 2007)">ms</text></g><g clip-path="url(#clip33)"><text fill="#262626" font-family="Microsoft YaHei,Microsoft YaHei_MSFontService,sans-serif" font-weight="400" font-size="83" transform="matrix(1 0 0 1 3899.17 2007)">137</text></g><g clip-path="url(#clip34)"><text fill="#262626" font-family="Arial,Arial_MSFontService,sans-serif" font-weight="400" font-size="83" transform="matrix(1 0 0 1 377.588 2175)">encode_mcu_huff</text></g><text fill="#262626" font-family="Microsoft YaHei,Microsoft YaHei_MSFontService,sans-serif" font-weight="400" font-size="83" transform="matrix(1 0 0 1 1149.62 2175)">图片编码</text><text fill="#262626" font-family="Microsoft YaHei,Microsoft YaHei_MSFontService,sans-serif" font-weight="400" font-size="83" transform="matrix(1 0 0 1 1733.56 2190)">20</text><g clip-path="url(#clip35)"><text fill="#262626" font-family="Microsoft YaHei,Microsoft YaHei_MSFontService,sans-serif" font-weight="400" font-size="83" transform="matrix(1 0 0 1 1829.81 2190)">ms</text></g><g clip-path="url(#clip36)"><text fill="#262626" font-family="Microsoft YaHei,Microsoft YaHei_MSFontService,sans-serif" font-weight="400" font-size="83" transform="matrix(1 0 0 1 2268.89 2190)">38</text></g><text fill="#262626" font-family="Microsoft YaHei,Microsoft YaHei_MSFontService,sans-serif" font-weight="400" font-size="83" transform="matrix(1 0 0 1 2572.77 2190)">25</text><g clip-path="url(#clip37)"><text fill="#262626" font-family="Microsoft YaHei,Microsoft YaHei_MSFontService,sans-serif" font-weight="400" font-size="83" transform="matrix(1 0 0 1 2669.02 2190)">ms</text></g><g clip-path="url(#clip38)"><text fill="#262626" font-family="Microsoft YaHei,Microsoft YaHei_MSFontService,sans-serif" font-weight="400" font-size="83" transform="matrix(1 0 0 1 3108.1 2190)">46</text></g><text fill="#262626" font-family="Microsoft YaHei,Microsoft YaHei_MSFontService,sans-serif" font-weight="400" font-size="83" transform="matrix(1 0 0 1 3411.97 2190)">28</text><g clip-path="url(#clip39)"><text fill="#262626" font-family="Microsoft YaHei,Microsoft YaHei_MSFontService,sans-serif" font-weight="400" font-size="83" transform="matrix(1 0 0 1 3508.22 2190)">ms</text></g><g clip-path="url(#clip40)"><text fill="#262626" font-family="Microsoft YaHei,Microsoft YaHei_MSFontService,sans-serif" font-weight="400" font-size="83" transform="matrix(1 0 0 1 3947.3 2190)">53</text></g></g></svg>