<svg width="1832" height="2189" xmlns="http://www.w3.org/2000/svg" xmlns:xlink="http://www.w3.org/1999/xlink" xml:space="preserve" overflow="hidden"><defs><clipPath id="clip0"><rect x="174" y="136" width="1832" height="2189"/></clipPath></defs><g clip-path="url(#clip0)" transform="translate(-174 -136)"><rect x="783.5" y="422.5" width="628" height="160" stroke="#000000" stroke-width="6.875" stroke-miterlimit="8" fill="none"/><text font-family="SimSun,SimSun_MSFontService,sans-serif" font-weight="400" font-size="83" transform="matrix(1 0 0 1 931.774 538)">指令遍历</text><path d="M1099.94 341.455 1100.7 400.265 1093.83 400.354 1093.06 341.545ZM1110.95 395.548 1097.56 423.224 1083.46 395.905Z"/><path d="M714.5 341.5 765 139.5 1477.5 139.5 1427 341.5Z" stroke="#000000" stroke-width="6.875" stroke-miterlimit="8" fill="none" fill-rule="evenodd"/><text font-family="SimSun,SimSun_MSFontService,sans-serif" font-weight="400" font-size="83" transform="matrix(1 0 0 1 848.211 275)">目标应用代码</text><path d="M714.5 923.5 779.75 662.5 1477.5 662.5 1412.25 923.5Z" stroke="#000000" stroke-width="6.875" stroke-miterlimit="8" fill="none" fill-rule="evenodd"/><text font-family="SimSun,SimSun_MSFontService,sans-serif" font-weight="400" font-size="83" transform="matrix(1 0 0 1 848.209 778)">扩展指令候选</text><text font-family="SimSun,SimSun_MSFontService,sans-serif" font-weight="400" font-size="83" transform="matrix(1 0 0 1 1013.21 877)">集合</text><rect x="783.5" y="1002.5" width="628" height="159" stroke="#000000" stroke-width="6.875" stroke-miterlimit="8" fill="none"/><text font-family="SimSun,SimSun_MSFontService,sans-serif" font-weight="400" font-size="83" transform="matrix(1 0 0 1 849.274 1117)">指令集合选择</text><path d="M714.5 1444.5 764.75 1243.5 1477.5 1243.5 1427.25 1444.5Z" stroke="#000000" stroke-width="6.875" stroke-miterlimit="8" fill="none" fill-rule="evenodd"/><text font-family="SimSun,SimSun_MSFontService,sans-serif" font-weight="400" font-size="83" transform="matrix(1 0 0 1 848.209 1379)">扩展指令系统</text><rect x="229.5" y="1525.5" width="660" height="159" stroke="#000000" stroke-width="6.875" stroke-miterlimit="8" fill="none"/><text font-family="SimSun,SimSun_MSFontService,sans-serif" font-weight="400" font-size="83" transform="matrix(1 0 0 1 311.792 1640)">指令系统应用</text><rect x="1289.5" y="1524.5" width="661" height="159" stroke="#000000" stroke-width="6.875" stroke-miterlimit="8" fill="none"/><text font-family="SimSun,SimSun_MSFontService,sans-serif" font-weight="400" font-size="83" transform="matrix(1 0 0 1 1371.93 1639)">指令系统实现</text><path d="M0-3.4375 242.008-3.4375 242.008 1261.01 235.133 1261.01 235.133 0 238.57 3.4375 0 3.4375ZM252.32 1256.42 238.57 1283.92 224.82 1256.42Z" transform="matrix(-1 1.22465e-16 1.22465e-16 1 740.07 240.5)"/><path d="M0-3.4375 183.642-3.4375 183.642 158.318 176.767 158.318 176.767 0 180.204 3.4375 0 3.4375ZM193.954 153.734 180.204 181.234 166.454 153.734Z" transform="matrix(-1 1.22465e-16 1.22465e-16 1 739.705 1343.5)"/><path d="M3.4372-0.0455253 4.19797 57.3932-2.67643 57.4843-3.4372 0.0455253ZM14.4489 52.6737 1.06427 80.3534-13.0487 53.0379Z" transform="matrix(-1 0 0 1 1097.56 582.5)"/><path d="M1099.94 923.454 1100.69 979.44 1093.82 979.533 1093.06 923.547ZM1110.94 974.718 1097.56 1002.4 1083.44 975.089Z"/><path d="M3.43721-0.0447171 4.20337 58.8466-2.67105 58.936-3.43721 0.0447171ZM14.4554 54.1295 1.06427 81.806-13.0423 54.4872Z" transform="matrix(-1 0 0 1 1097.56 1161.5)"/><path d="M1452.5 1340.06 1623.44 1340.06 1623.44 1500.99 1616.57 1500.99 1616.57 1343.5 1620.01 1346.94 1452.5 1346.94ZM1633.76 1496.4 1620.01 1523.9 1606.26 1496.4Z"/><path d="M3.4375-1.22927e-05 3.43778 78.0025-3.43722 78.0026-3.4375 1.22927e-05ZM13.7503 73.4192 0.000360892 100.919-13.7497 73.4193Z" transform="matrix(-1 0 0 1 559.5 1684.5)"/><path d="M3.4375-1.21922e-05 3.43778 78.834-3.43722 78.8341-3.4375 1.21922e-05ZM13.7503 74.2507 0.000360892 101.751-13.7497 74.2508Z" transform="matrix(-1 0 0 1 1619.5 1683.5)"/><path d="M178.5 2045.5 243.5 1785.5 941.5 1785.5 876.5 2045.5Z" stroke="#000000" stroke-width="6.875" stroke-miterlimit="8" fill="none" fill-rule="evenodd"/><text font-family="SimSun,SimSun_MSFontService,sans-serif" font-weight="400" font-size="83" transform="matrix(1 0 0 1 311.791 1901)">使用扩展指令</text><text font-family="SimSun,SimSun_MSFontService,sans-serif" font-weight="400" font-size="83" transform="matrix(1 0 0 1 353.041 2000)">系统的程序</text><path d="M1238.5 2045.5 1303.5 1785.5 2001.5 1785.5 1936.5 2045.5Z" stroke="#000000" stroke-width="6.875" stroke-miterlimit="8" fill="none" fill-rule="evenodd"/><text font-family="SimSun,SimSun_MSFontService,sans-serif" font-weight="400" font-size="83" transform="matrix(1 0 0 1 1371.93 1901)">支持扩展指令</text><text font-family="SimSun,SimSun_MSFontService,sans-serif" font-weight="400" font-size="83" transform="matrix(1 0 0 1 1371.93 2000)">系统的处理器</text><rect x="425.5" y="2146.5" width="1342" height="159" stroke="#000000" stroke-width="6.875" stroke-miterlimit="8" fill="none"/><text font-family="SimSun,SimSun_MSFontService,sans-serif" font-weight="400" font-size="83" transform="matrix(1 0 0 1 930.709 2261)">投入使用</text><path d="M562.938 2045.5 562.938 2123.5 556.063 2123.5 556.063 2045.5ZM573.25 2118.92 559.5 2146.42 545.75 2118.92Z"/><path d="M1622.94 2045.5 1622.94 2123.5 1616.06 2123.5 1616.06 2045.5ZM1633.25 2118.92 1619.5 2146.42 1605.75 2118.92Z"/></g></svg>