<svg width="4165" height="1419" xmlns="http://www.w3.org/2000/svg" xmlns:xlink="http://www.w3.org/1999/xlink" xml:space="preserve" overflow="hidden"><g transform="translate(-149 -626)"><rect x="151.5" y="768.5" width="1077" height="939" stroke="#000000" stroke-width="4.58333" stroke-miterlimit="8" fill="none"/><rect x="1325.5" y="768.5" width="397" height="939" stroke="#000000" stroke-width="4.58333" stroke-miterlimit="8" fill="none"/><rect x="1819.5" y="768.5" width="727" height="939" stroke="#000000" stroke-width="4.58333" stroke-miterlimit="8" fill="none"/><rect x="2667.5" y="768.5" width="1102" height="939" stroke="#000000" stroke-width="4.58333" stroke-miterlimit="8" fill="none"/><rect x="3882.5" y="764.5" width="376" height="939" stroke="#000000" stroke-width="4.58333" stroke-miterlimit="8" fill="none"/><rect x="431.5" y="1096.5" width="183" height="283" stroke="#000000" stroke-width="4.58333" stroke-miterlimit="8" fill="none"/><text font-family="DengXian,DengXian_MSFontService,sans-serif" font-weight="400" font-size="55" transform="matrix(1 0 0 1 464.119 1222)">fetch</text><text font-family="DengXian,DengXian_MSFontService,sans-serif" font-weight="400" font-size="55" transform="matrix(1 0 0 1 452.088 1288)">buffer</text><rect x="673.5" y="1096.5" width="220" height="283" stroke="#000000" stroke-width="4.58333" stroke-miterlimit="8" fill="none"/><text font-family="DengXian,DengXian_MSFontService,sans-serif" font-weight="400" font-size="55" transform="matrix(1 0 0 1 741.698 1222)">inst</text><text font-family="DengXian,DengXian_MSFontService,sans-serif" font-weight="400" font-size="55" transform="matrix(1 0 0 1 685.828 1288)">decoder</text><rect x="1022.5" y="1096.5" width="175" height="283" stroke="#000000" stroke-width="4.58333" stroke-miterlimit="8" fill="none"/><text font-family="DengXian,DengXian_MSFontService,sans-serif" font-weight="400" font-size="55" transform="matrix(1 0 0 1 1050.8 1222)">fetch</text><text font-family="DengXian,DengXian_MSFontService,sans-serif" font-weight="400" font-size="55" transform="matrix(1 0 0 1 1035.03 1288)">queue</text><path d="M614.5 1236.21 650.026 1236.21 650.026 1240.79 614.5 1240.79ZM645.443 1224.75 672.943 1238.5 645.443 1252.25Z"/><path d="M893.5 1236.21 998.945 1236.21 998.945 1240.79 893.5 1240.79ZM994.362 1224.75 1021.86 1238.5 994.362 1252.25Z"/><rect x="831.5" y="840.5" width="253" height="156" stroke="#000000" stroke-width="4.58333" stroke-miterlimit="8" fill="none"/><text font-family="DengXian,DengXian_MSFontService,sans-serif" font-weight="400" font-size="55" transform="matrix(1 0 0 1 886.628 903)">bpred</text><text font-family="DengXian,DengXian_MSFontService,sans-serif" font-weight="400" font-size="55" transform="matrix(1 0 0 1 912.134 969)">unit</text><path d="M959.792 1019.42 959.792 1215.23 955.208 1215.23 955.208 1019.42ZM943.75 1024 957.5 996.5 971.25 1024ZM971.25 1210.65 957.5 1238.15 943.75 1210.65Z"/><rect x="254.5" y="1780.5" width="174" height="181" stroke="#000000" stroke-width="4.58333" stroke-miterlimit="8" fill="none"/><text font-family="DengXian,DengXian_MSFontService,sans-serif" font-weight="400" font-size="55" transform="matrix(1 0 0 1 279.161 1856)">mmu</text><text font-family="DengXian,DengXian_MSFontService,sans-serif" font-weight="400" font-size="55" transform="matrix(1 0 0 1 298.068 1922)">TLB</text><rect x="520.5" y="1539.5" width="339" height="112" stroke="#000000" stroke-width="4.58333" stroke-miterlimit="8" fill="none"/><text font-family="DengXian,DengXian_MSFontService,sans-serif" font-weight="400" font-size="55" transform="matrix(1 0 0 1 558.884 1613)">icache</text><text font-family="DengXian,DengXian_MSFontService,sans-serif" font-weight="400" font-size="55" transform="matrix(1 0 0 1 721.019 1613)">port</text><path d="M371.208 1780.83 371.208 1617.21 497.644 1617.21 497.644 1621.79 373.5 1621.79 375.792 1619.5 375.792 1780.83ZM493.061 1605.75 520.561 1619.5 493.061 1633.25Z"/><path d="M521.026 1574.44 371.851 1574.44 371.851 1236.21 408.583 1236.21 408.583 1240.79 374.143 1240.79 376.435 1238.5 376.435 1572.15 374.143 1569.86 521.026 1569.86ZM404 1224.75 431.5 1238.5 404 1252.25Z"/><path d="M257.5 1236.21 311.159 1236.21 311.159 1758.18 306.576 1758.18 306.576 1238.5 308.868 1240.79 257.5 1240.79ZM322.618 1753.6 308.868 1781.1 295.118 1753.6Z"/><rect x="196.5" y="1096.5" width="60.9998" height="283" stroke="#000000" stroke-width="4.58333" stroke-miterlimit="8" fill="none"/><path d="M199.5 1379.5 227 1320.5 254.5 1379.5Z" stroke="#000000" stroke-width="4.58333" stroke-miterlimit="8" fill="none" fill-rule="evenodd"/><text font-family="DengXian,DengXian_MSFontService,sans-serif" font-weight="700" font-size="64" transform="matrix(1 0 0 1 198.365 861)">Fetch</text><path d="M1197.51 1236.21 1362.02 1237.19 1362 1241.77 1197.49 1240.79ZM1357.51 1225.7 1384.93 1239.61 1357.35 1253.2Z"/><text font-family="DengXian,DengXian_MSFontService,sans-serif" font-weight="700" font-size="64" transform="matrix(1 0 0 1 1360.07 861)">Decode</text><text font-family="DengXian,DengXian_MSFontService,sans-serif" font-weight="400" font-size="55" transform="matrix(1 0 0 1 193.923 1063)">PC</text><rect x="2273.5" y="1124.5" width="227" height="227" stroke="#000000" stroke-width="4.58333" stroke-miterlimit="8" fill="none"/><text font-family="DengXian,DengXian_MSFontService,sans-serif" font-weight="400" font-size="55" transform="matrix(1 0 0 1 2323.71 1222)">score</text><text font-family="DengXian,DengXian_MSFontService,sans-serif" font-weight="400" font-size="55" transform="matrix(1 0 0 1 2315.97 1288)">board</text><path d="M0.0140381-2.29162 159.14-1.31685 159.112 3.2664-0.0140381 2.29162ZM154.627-12.803 182.042 1.11516 154.458 14.6964Z" transform="matrix(1 0 0 -1 1691.5 1238.62)"/><path d="M0.00930493-2.29165 241.694-1.31032 241.675 3.27297-0.00930493 2.29165ZM237.157-12.7872 264.601 1.07438 237.045 14.7126Z" transform="matrix(1 0 0 -1 2500.5 1237.57)"/><text font-family="DengXian,DengXian_MSFontService,sans-serif" font-weight="700" font-size="64" transform="matrix(1 0 0 1 1872.78 861)">Rename</text><rect x="2764.5" y="1151.5" width="323" height="171" stroke="#000000" stroke-width="4.58333" stroke-miterlimit="8" fill="none"/><text font-family="DengXian,DengXian_MSFontService,sans-serif" font-weight="400" font-size="55" transform="matrix(1 0 0 1 2802.78 1254)">inst</text><text font-family="DengXian,DengXian_MSFontService,sans-serif" font-weight="400" font-size="55" transform="matrix(1 0 0 1 2900.18 1254)">queue</text><rect x="2757.5" y="1366.5" width="388" height="313" stroke="#000000" stroke-width="4.58333" stroke-miterlimit="8" fill="none"/><path d="M3206.9 1477.7C3204.27 1455.58 3217.81 1435.21 3237.15 1432.2 3244.98 1430.98 3252.95 1432.81 3259.77 1437.38 3267 1421.79 3283.89 1415.87 3297.49 1424.15 3299.87 1425.59 3302.06 1427.43 3303.98 1429.59 3309.61 1416.67 3323.32 1411.42 3334.61 1417.87 3337.73 1419.65 3340.45 1422.23 3342.57 1425.41 3351.64 1413.19 3367.68 1411.68 3378.38 1422.04 3382.88 1426.39 3385.91 1432.4 3386.96 1439.02 3401.83 1443.67 3410.6 1461.25 3406.55 1478.29 3406.21 1479.73 3405.78 1481.13 3405.27 1482.49 3417.2 1500.26 3414.28 1525.71 3398.75 1539.35 3393.92 1543.6 3388.21 1546.35 3382.18 1547.34 3382.05 1566.45 3368.39 1581.81 3351.67 1581.66 3346.09 1581.61 3340.63 1579.79 3335.89 1576.41 3330.24 1597.83 3310.52 1609.94 3291.85 1603.46 3284.02 1600.74 3277.26 1594.99 3272.72 1587.19 3253.6 1600.38 3228.79 1593.29 3217.3 1571.34 3217.15 1571.06 3217.01 1570.78 3216.87 1570.5 3204.36 1572.18 3193.02 1561.96 3191.56 1547.69 3190.77 1540.08 3192.97 1532.46 3197.56 1526.86 3186.72 1519.57 3183.08 1503.55 3189.43 1491.09 3193.09 1483.9 3199.51 1479.15 3206.71 1478.29Z" stroke="#000000" stroke-width="4.58333" stroke-miterlimit="8" fill="none" fill-rule="evenodd"/><path d="M3211.05 1529.63C3206.43 1530.04 3201.8 1528.82 3197.8 1526.13M3222.74 1567.99C3220.88 1568.84 3218.93 1569.4 3216.95 1569.67M3272.7 1586.42C3271.31 1584.02 3270.13 1581.46 3269.21 1578.77M3337.31 1567.34C3337.1 1570.19 3336.63 1573 3335.91 1575.74M3365.05 1515.46C3375.53 1521.29 3382.15 1533.5 3382.05 1546.84M3405.17 1482.03C3403.47 1486.57 3400.87 1490.6 3397.59 1493.8M3386.99 1438.36C3387.28 1440.2 3387.41 1442.06 3387.39 1443.92M3338.62 1431.88C3339.61 1429.32 3340.91 1426.93 3342.5 1424.79M3302.33 1435.26C3302.73 1433.14 3303.36 1431.09 3304.21 1429.15M3259.74 1437.34C3262.21 1438.99 3264.49 1440.98 3266.54 1443.27M3208.09 1483.94C3207.55 1481.9 3207.15 1479.82 3206.9 1477.7" stroke="#000000" stroke-width="4.58333" stroke-miterlimit="8" fill="none" fill-rule="evenodd"/><text font-family="DengXian,DengXian_MSFontService,sans-serif" font-weight="400" font-size="55" transform="matrix(1 0 0 1 3260.37 1526)">exe</text><text font-family="DengXian,DengXian_MSFontService,sans-serif" font-weight="400" font-size="55" transform="matrix(1 0 0 1 3585.69 1254)">wb</text><path d="M3087.51 1234.21 3163.7 1234.41 3163.68 1238.99 3087.49 1238.79ZM3159.14 1222.94 3186.61 1236.76 3159.07 1250.44Z"/><path d="M8.92463e-06-2.29167 69.7533-2.29139 69.7533 2.29194-8.92463e-06 2.29167ZM65.17-13.7497 92.6699 0.000360892 65.1699 13.7503Z" transform="matrix(1 0 0 -1 3412.5 1237.5)"/><path d="M0-2.29167 274.231-2.29167 274.231 105.491 269.647 105.491 269.647 0 271.939 2.29167 0 2.29167ZM285.689 100.908 271.939 128.408 258.189 100.908Z" transform="matrix(1.83697e-16 1 1 -1.83697e-16 2712.5 1237.5)"/><rect x="2840.5" y="1468.5" width="221" height="81.0001" stroke="#000000" stroke-width="4.58333" stroke-miterlimit="8" fill="none"/><text font-family="DengXian,DengXian_MSFontService,sans-serif" font-weight="400" font-size="55" transform="matrix(1 0 0 1 2871.36 1527)">LQ/SQ</text><rect x="2795.5" y="1570.5" width="311" height="80.9998" stroke="#000000" stroke-width="4.58333" stroke-miterlimit="8" fill="none"/><text font-family="DengXian,DengXian_MSFontService,sans-serif" font-weight="400" font-size="55" transform="matrix(1 0 0 1 2809.78 1629)">dcache</text><text font-family="DengXian,DengXian_MSFontService,sans-serif" font-weight="400" font-size="55" transform="matrix(1 0 0 1 2991.39 1629)">port</text><path d="M3061.5 1507.21 3164.47 1507.36 3164.46 1511.94 3061.5 1511.79ZM3159.9 1495.9 3187.38 1509.69 3159.86 1523.4Z"/><text font-family="DengXian,DengXian_MSFontService,sans-serif" font-weight="400" font-size="55" transform="matrix(1 0 0 1 2780.72 1431)">LSQ</text><rect x="3180.5" y="1761.5" width="174" height="181" stroke="#000000" stroke-width="4.58333" stroke-miterlimit="8" fill="none"/><text font-family="DengXian,DengXian_MSFontService,sans-serif" font-weight="400" font-size="55" transform="matrix(1 0 0 1 3205.31 1836)">mmu</text><text font-family="DengXian,DengXian_MSFontService,sans-serif" font-weight="400" font-size="55" transform="matrix(1 0 0 1 3224.21 1902)">TLB</text><path d="M3301.79 1604.49 3302.09 1738.67 3297.51 1738.68 3297.21 1604.51ZM3313.54 1734.06 3299.85 1761.59 3286.04 1734.12Z"/><path d="M0-2.29167 152.512-2.29167 152.512 105.959 147.929 105.959 147.929 0 150.221 2.29167 0 2.29167ZM163.971 101.375 150.221 128.875 136.471 101.375Z" transform="matrix(-1.83697e-16 -1 -1 1.83697e-16 3235.38 1761.72)"/><path d="M2.29167-2.76361e-06 2.29169 18.3333-2.29164 18.3333-2.29167 2.76361e-06ZM2.29171 32.0833 2.29173 50.4167-2.29161 50.4167-2.29163 32.0833ZM2.29174 64.1667 2.29177 82.5-2.29157 82.5-2.29159 64.1667ZM2.29178 96.25 2.2918 114.583-2.29153 114.583-2.29155 96.25ZM2.29182 128.333 2.29184 146.667-2.29149 146.667-2.29151 128.333ZM2.29186 160.417 2.29188 178.75-2.29145 178.75-2.29147 160.417ZM2.2919 192.5 2.29192 210.833-2.29141 210.833-2.29143 192.5ZM2.29194 224.583 2.29196 242.917-2.29137 242.917-2.2914 224.583ZM2.29198 256.667 2.292 275-2.29134 275-2.29136 256.667ZM13.7503 271.762 0.000360892 299.262-13.7497 271.762Z" transform="matrix(1 0 0 -1 3299.5 1152.76)"/><text font-family="DengXian,DengXian_MSFontService,sans-serif" font-weight="700" font-size="64" transform="matrix(1 0 0 1 2713.58 860)">Issue</text><text font-family="DengXian,DengXian_MSFontService,sans-serif" font-weight="700" font-size="64" transform="matrix(1 0 0 1 2859.1 860)">-</text><text font-family="DengXian,DengXian_MSFontService,sans-serif" font-weight="700" font-size="64" transform="matrix(1 0 0 1 2891.18 860)">Execute</text><text font-family="DengXian,DengXian_MSFontService,sans-serif" font-weight="700" font-size="64" transform="matrix(1 0 0 1 2713.58 937)">-</text><text font-family="DengXian,DengXian_MSFontService,sans-serif" font-weight="700" font-size="64" transform="matrix(1 0 0 1 2745.66 937)">Writeback</text><path d="M3730.5 1235.21 3924.19 1235.22 3924.18 1239.81 3730.5 1239.79ZM3919.6 1223.76 3947.1 1237.52 3919.6 1251.26Z"/><rect x="3947.5" y="1441.5" width="257" height="202" stroke="#000000" stroke-width="4.58333" stroke-miterlimit="8" fill="none"/><text font-family="DengXian,DengXian_MSFontService,sans-serif" font-weight="400" font-size="55" transform="matrix(1 0 0 1 4023.47 1560)">ROB</text><path d="M3297.21 1425 3297.21 1406.66 3301.79 1406.66 3301.79 1425ZM3297.21 1392.91 3297.21 1377.84 3305.06 1377.84 3305.06 1382.43 3299.5 1382.43 3301.79 1380.13 3301.79 1392.91ZM3318.81 1377.84 3337.14 1377.84 3337.14 1382.43 3318.81 1382.43ZM3350.89 1377.84 3369.22 1377.84 3369.22 1382.43 3350.89 1382.43ZM3382.97 1377.84 3401.31 1377.84 3401.31 1382.43 3382.97 1382.43ZM3415.06 1377.84 3433.39 1377.84 3433.39 1382.43 3415.06 1382.43ZM3447.14 1377.84 3451.94 1377.84 3449.64 1380.13 3449.64 1366.6 3454.23 1366.6 3454.23 1382.43 3447.14 1382.43ZM3449.64 1352.85 3449.64 1334.51 3454.23 1334.51 3454.23 1352.85ZM3449.64 1320.76 3449.64 1302.43 3454.23 1302.43 3454.23 1320.76ZM3449.64 1288.68 3449.64 1270.35 3454.23 1270.35 3454.23 1288.68ZM3449.64 1256.6 3449.64 1238.26 3454.23 1238.26 3454.23 1256.6ZM3449.64 1224.51 3449.64 1206.18 3454.23 1206.18 3454.23 1224.51ZM3449.64 1192.43 3449.64 1174.1 3454.23 1174.1 3454.23 1192.43ZM3449.64 1160.35 3449.64 1142.01 3454.23 1142.01 3454.23 1160.35ZM3449.64 1128.26 3449.64 1109.93 3454.23 1109.93 3454.23 1128.26ZM3449.64 1096.18 3449.64 1077.85 3454.23 1077.85 3454.23 1096.18ZM3449.64 1064.1 3449.64 1045.76 3454.23 1045.76 3454.23 1064.1ZM3449.64 1032.01 3449.64 1013.68 3454.23 1013.68 3454.23 1032.01ZM3449.64 999.93 3449.64 983.417 3454.23 983.417 3454.23 999.93ZM3438.19 988 3451.94 960.5 3465.69 988Z"/><path d="M2.29167-0.00152475 2.30386 18.3318-2.27947 18.3349-2.29167 0.00152475ZM2.31301 32.0818 2.32521 50.4151-2.25812 50.4182-2.27032 32.0849ZM2.33436 64.1651 2.34571 81.2249-2.23762 81.2279-2.24897 64.1682ZM13.801 76.6339 0.0692913 104.143-13.699 76.6522Z" transform="matrix(1 0 0 -1 1537.5 1140.64)"/><text font-family="DengXian,DengXian_MSFontService,sans-serif" font-weight="400" font-size="55" transform="matrix(1 0 0 1 1440.7 1004)">mispred</text><text font-family="DengXian,DengXian_MSFontService,sans-serif" font-weight="400" font-size="55" transform="matrix(1 0 0 1 3203.32 821)">mispred</text><text font-family="DengXian,DengXian_MSFontService,sans-serif" font-weight="400" font-size="55" transform="matrix(1 0 0 1 3391.02 868)">mem</text><text font-family="DengXian,DengXian_MSFontService,sans-serif" font-weight="400" font-size="55" transform="matrix(1 0 0 1 3387.01 927)">order</text><path d="M2596 1238C2596 1233.58 2599.81 1230 2604.5 1230 2609.19 1230 2613 1233.58 2613 1238 2613 1242.42 2609.19 1246 2604.5 1246 2599.81 1246 2596 1242.42 2596 1238Z" fill-rule="evenodd"/><path d="M2703 1236.5C2703 1231.81 2706.81 1228 2711.5 1228 2716.19 1228 2720 1231.81 2720 1236.5 2720 1241.19 2716.19 1245 2711.5 1245 2706.81 1245 2703 1241.19 2703 1236.5Z" fill-rule="evenodd"/><path d="M2607.79 1236.5 2607.79 2034.5 2605.5 2032.21 3824.99 2032.21 3822.7 2034.5 3822.7 1544.84 3924.58 1544.84 3924.58 1549.42 3824.99 1549.42 3827.29 1547.13 3827.29 2036.79 2603.21 2036.79 2603.21 1236.5ZM3920 1533.38 3947.5 1547.13 3920 1560.88Z"/><path d="M692.792 1674.42 692.792 1692.75 688.208 1692.75 688.208 1674.42ZM692.792 1706.5 692.792 1724.83 688.209 1724.83 688.209 1706.5ZM692.792 1738.58 692.792 1756.92 688.209 1756.92 688.209 1738.58ZM692.792 1770.67 692.792 1789 688.209 1789 688.209 1770.67ZM692.792 1802.75 692.792 1821.08 688.209 1821.08 688.209 1802.75ZM692.792 1834.83 692.792 1853.17 688.209 1853.17 688.209 1834.83ZM692.792 1866.92 692.792 1885.25 688.209 1885.25 688.209 1866.92ZM692.792 1899 692.792 1905.98 688.209 1905.98 688.209 1899ZM676.75 1679 690.5 1651.5 704.25 1679ZM704.25 1901.39 690.5 1928.89 676.75 1901.39Z"/><path d="M2952.79 1674.42 2952.79 1692.75 2948.21 1692.75 2948.21 1674.42ZM2952.79 1706.5 2952.79 1724.83 2948.21 1724.83 2948.21 1706.5ZM2952.79 1738.58 2952.79 1756.92 2948.21 1756.92 2948.21 1738.58ZM2952.79 1770.67 2952.79 1789 2948.21 1789 2948.21 1770.67ZM2952.79 1802.75 2952.79 1821.08 2948.21 1821.08 2948.21 1802.75ZM2952.79 1834.83 2952.79 1853.17 2948.21 1853.17 2948.21 1834.83ZM2952.79 1866.92 2952.79 1883.36 2948.21 1883.36 2948.21 1866.92ZM2936.75 1679 2950.5 1651.5 2964.25 1679ZM2964.25 1878.77 2950.5 1906.27 2936.75 1878.77Z"/><rect x="3493.5" y="1388.5" width="227" height="227" stroke="#000000" stroke-width="4.58333" stroke-miterlimit="8" fill="none"/><text font-family="DengXian,DengXian_MSFontService,sans-serif" font-weight="400" font-size="55" transform="matrix(1 0 0 1 3567.57 1487)">reg</text><text font-family="DengXian,DengXian_MSFontService,sans-serif" font-weight="400" font-size="55" transform="matrix(1 0 0 1 3572.73 1553)">file</text><path d="M22.9167-2.29156 81.2975-2.29131 81.2975 2.29203 22.9167 2.29177ZM27.4999 13.7501 0 0 27.5001-13.7499Z" transform="matrix(1 0 0 -1 3412.5 1505.5)"/><path d="M3394.79 1306.09 3495.17 1386.89 3492.3 1390.47 3391.91 1309.66ZM3388.3 1321.46 3375.5 1293.5 3405.54 1300.03Z"/><text font-family="DengXian,DengXian_MSFontService,sans-serif" font-weight="700" font-size="64" transform="matrix(1 0 0 1 3915.11 860)">Commit</text><path d="M3205.99 1205.7C3203.35 1183.58 3216.95 1163.21 3236.37 1160.2 3244.24 1158.98 3252.24 1160.81 3259.09 1165.38 3266.35 1149.79 3283.32 1143.87 3296.99 1152.15 3299.38 1153.59 3301.57 1155.43 3303.5 1157.59 3309.15 1144.67 3322.93 1139.42 3334.26 1145.87 3337.4 1147.65 3340.14 1150.23 3342.26 1153.41 3351.37 1141.19 3367.48 1139.68 3378.23 1150.04 3382.75 1154.39 3385.8 1160.4 3386.85 1167.02 3401.78 1171.67 3410.59 1189.25 3406.52 1206.29 3406.18 1207.73 3405.75 1209.13 3405.24 1210.49 3417.22 1228.26 3414.28 1253.71 3398.69 1267.35 3393.84 1271.6 3388.1 1274.35 3382.05 1275.34 3381.91 1294.45 3368.19 1309.81 3351.41 1309.66 3345.8 1309.61 3340.31 1307.79 3335.55 1304.41 3329.87 1325.83 3310.07 1337.94 3291.31 1331.46 3283.45 1328.74 3276.66 1322.99 3272.1 1315.19 3252.9 1328.38 3227.97 1321.29 3216.43 1299.34 3216.29 1299.06 3216.14 1298.78 3216 1298.5 3203.44 1300.18 3192.05 1289.96 3190.58 1275.69 3189.79 1268.08 3192 1260.46 3196.61 1254.86 3185.73 1247.57 3182.07 1231.55 3188.44 1219.09 3192.12 1211.9 3198.57 1207.15 3205.8 1206.29Z" stroke="#000000" stroke-width="4.58333" stroke-miterlimit="8" fill="#FFFFFF" fill-rule="evenodd"/><path d="M3210.16 1257.63C3205.51 1258.04 3200.87 1256.82 3196.85 1254.13M3221.9 1295.99C3220.04 1296.84 3218.08 1297.4 3216.08 1297.67M3272.09 1314.42C3270.68 1312.02 3269.5 1309.46 3268.58 1306.77M3336.98 1295.34C3336.77 1298.19 3336.3 1301 3335.57 1303.74M3364.84 1243.46C3375.37 1249.29 3382.01 1261.5 3381.92 1274.84M3405.13 1210.03C3403.43 1214.57 3400.82 1218.6 3397.53 1221.8M3386.88 1166.36C3387.17 1168.2 3387.3 1170.06 3387.28 1171.92M3338.29 1159.88C3339.29 1157.32 3340.6 1154.93 3342.19 1152.79M3301.84 1163.26C3302.25 1161.14 3302.88 1159.09 3303.73 1157.15M3259.06 1165.34C3261.54 1166.99 3263.84 1168.98 3265.9 1171.27M3207.19 1211.94C3206.64 1209.9 3206.25 1207.82 3205.99 1205.7" stroke="#000000" stroke-width="4.58333" stroke-miterlimit="8" fill="none" fill-rule="evenodd"/><text font-family="DengXian,DengXian_MSFontService,sans-serif" font-weight="400" font-size="55" transform="matrix(1 0 0 1 3258.91 1254)">exe</text><path d="M1411.31 1202.35C1407.72 1176.5 1426.18 1152.7 1452.52 1149.19 1463.2 1147.76 1474.05 1149.89 1483.35 1155.23 1493.2 1137.02 1516.22 1130.1 1534.77 1139.77 1538.01 1141.46 1540.99 1143.61 1543.6 1146.14 1551.28 1131.04 1569.96 1124.9 1585.34 1132.44 1589.6 1134.52 1593.31 1137.54 1596.2 1141.25 1608.56 1126.97 1630.42 1125.21 1645 1137.31 1651.14 1142.4 1655.27 1149.41 1656.69 1157.15 1676.96 1162.58 1688.91 1183.12 1683.39 1203.04 1682.93 1204.71 1682.35 1206.35 1681.65 1207.95 1697.9 1228.7 1693.92 1258.44 1672.76 1274.38 1666.18 1279.34 1658.4 1282.56 1650.18 1283.71 1650 1306.04 1631.38 1323.99 1608.6 1323.81 1600.99 1323.75 1593.55 1321.63 1587.09 1317.68 1579.39 1342.71 1552.52 1356.86 1527.07 1349.28 1516.41 1346.1 1507.19 1339.39 1501 1330.27 1474.95 1345.69 1441.13 1337.4 1425.47 1311.75 1425.27 1311.43 1425.08 1311.1 1424.89 1310.78 1407.84 1312.73 1392.39 1300.8 1390.39 1284.12 1389.32 1275.23 1392.32 1266.33 1398.57 1259.79 1383.81 1251.26 1378.85 1232.55 1387.49 1217.99 1392.48 1209.59 1401.23 1204.04 1411.05 1203.04Z" stroke="#000000" stroke-width="4.58333" stroke-miterlimit="8" fill="none" fill-rule="evenodd"/><path d="M1416.96 1263.02C1410.66 1263.5 1404.35 1262.08 1398.9 1258.93M1432.89 1307.84C1430.36 1308.83 1427.7 1309.49 1424.99 1309.8M1500.98 1329.38C1499.08 1326.57 1497.48 1323.58 1496.22 1320.44M1589.03 1307.08C1588.75 1310.41 1588.11 1313.7 1587.12 1316.89M1626.83 1246.46C1641.12 1253.28 1650.14 1267.55 1650.01 1283.13M1681.5 1207.4C1679.19 1212.71 1675.66 1217.41 1671.18 1221.15M1656.74 1156.38C1657.13 1158.53 1657.31 1160.7 1657.28 1162.88M1590.82 1148.81C1592.16 1145.81 1593.94 1143.02 1596.1 1140.53M1541.36 1152.76C1541.91 1150.28 1542.77 1147.88 1543.92 1145.61M1483.31 1155.18C1486.68 1157.11 1489.79 1159.44 1492.58 1162.11M1412.92 1209.64C1412.19 1207.25 1411.65 1204.82 1411.31 1202.35" stroke="#000000" stroke-width="4.58333" stroke-miterlimit="8" fill="none" fill-rule="evenodd"/><text font-family="DengXian,DengXian_MSFontService,sans-serif" font-weight="400" font-size="55" transform="matrix(1 0 0 1 1501.13 1218)">br</text><text font-family="DengXian,DengXian_MSFontService,sans-serif" font-weight="400" font-size="55" transform="matrix(1 0 0 1 1459.58 1284)">check</text><text font-family="DengXian,DengXian_MSFontService,sans-serif" font-weight="400" font-size="55" transform="matrix(1 0 0 1 611.323 1996)">L2</text><text font-family="DengXian,DengXian_MSFontService,sans-serif" font-weight="400" font-size="55" transform="matrix(1 0 0 1 681.219 1996)">bus</text><text font-family="DengXian,DengXian_MSFontService,sans-serif" font-weight="400" font-size="55" transform="matrix(1 0 0 1 2871.24 1971)">L2</text><text font-family="DengXian,DengXian_MSFontService,sans-serif" font-weight="400" font-size="55" transform="matrix(1 0 0 1 2941.14 1971)">bus</text><path d="M2.29181 22.9167 2.29203 56.3472-2.29131 56.3472-2.29152 22.9167ZM-13.7498 27.5001 0 0 13.7502 27.4999Z" transform="matrix(1 0 0 -1 3621.5 1388.85)"/><path d="M2.29167-4.68277e-06 2.29198 153.698-2.29135 153.698-2.29167 4.68277e-06ZM13.7503 149.115 0.000360892 176.615-13.7497 149.115Z" transform="matrix(-1 0 0 1 2186.5 1060.5)"/><path d="M3970.7 1208.7C3967.71 1186.58 3983.11 1166.21 4005.09 1163.2 4014 1161.98 4023.06 1163.81 4030.82 1168.38 4039.04 1152.79 4058.25 1146.87 4073.72 1155.15 4076.43 1156.59 4078.91 1158.43 4081.09 1160.59 4087.49 1147.67 4103.09 1142.42 4115.92 1148.87 4119.47 1150.65 4122.57 1153.23 4124.98 1156.41 4135.3 1144.19 4153.53 1142.68 4165.7 1153.04 4170.82 1157.39 4174.27 1163.4 4175.46 1170.02 4192.36 1174.67 4202.34 1192.25 4197.73 1209.29 4197.35 1210.72 4196.86 1212.13 4196.28 1213.49 4209.84 1231.26 4206.52 1256.71 4188.87 1270.35 4183.37 1274.6 4176.88 1277.35 4170.02 1278.34 4169.87 1297.45 4154.34 1312.81 4135.33 1312.66 4128.98 1312.61 4122.77 1310.79 4117.38 1307.41 4110.95 1328.83 4088.53 1340.94 4067.3 1334.46 4058.4 1331.74 4050.71 1325.99 4045.54 1318.19 4023.8 1331.38 3995.59 1324.29 3982.52 1302.34 3982.35 1302.06 3982.19 1301.78 3982.03 1301.5 3967.81 1303.18 3954.92 1292.96 3953.25 1278.69 3952.36 1271.08 3954.86 1263.46 3960.07 1257.86 3947.75 1250.57 3943.62 1234.55 3950.83 1222.09 3954.99 1214.9 3962.29 1210.15 3970.49 1209.29Z" stroke="#000000" stroke-width="4.58333" stroke-miterlimit="8" fill="none" fill-rule="evenodd"/><path d="M3975.42 1260.63C3970.16 1261.04 3964.9 1259.82 3960.35 1257.12M3988.72 1298.99C3986.6 1299.84 3984.38 1300.4 3982.12 1300.67M4045.53 1317.42C4043.94 1315.02 4042.61 1312.46 4041.56 1309.77M4118.99 1298.34C4118.76 1301.19 4118.23 1304 4117.41 1306.74M4150.54 1246.46C4162.46 1252.29 4169.99 1264.5 4169.88 1277.84M4196.16 1213.03C4194.23 1217.57 4191.28 1221.6 4187.55 1224.8M4175.49 1169.36C4175.82 1171.2 4175.97 1173.06 4175.95 1174.92M4120.49 1162.88C4121.61 1160.32 4123.1 1157.93 4124.9 1155.79M4079.22 1166.26C4079.68 1164.14 4080.39 1162.09 4081.36 1160.15M4030.79 1168.34C4033.59 1169.99 4036.19 1171.98 4038.52 1174.27M3972.05 1214.94C3971.44 1212.9 3970.99 1210.82 3970.7 1208.7" stroke="#000000" stroke-width="4.58333" stroke-miterlimit="8" fill="none" fill-rule="evenodd"/><path d="M3987.05 1211.19 4165.8 1211.19 4165.8 1269.19 3987.05 1269.19Z" fill="#FFFFFF" fill-rule="evenodd"/><text font-family="DengXian,DengXian_MSFontService,sans-serif" font-weight="400" font-size="55" transform="matrix(1 0 0 1 3987.05 1254)">commit</text><path d="M4074.21 1419.06 4074.21 1335.5 4078.79 1335.5 4078.79 1419.06ZM4090.25 1414.47 4076.5 1441.97 4062.75 1414.47Z"/><path d="M4204.39 1230.21 4311.5 1230.21 4309.21 1232.5 4309.21 628.5 4311.5 630.792 2186.5 630.792 2188.79 628.5 2188.79 904.924 2184.21 904.924 2184.21 626.208 4313.79 626.208 4313.79 1234.79 4204.39 1234.79ZM2200.25 900.34 2186.5 927.84 2172.75 900.34Z"/><path d="M3089.28 1254.06 3219.45 1415.19 3215.88 1418.07 3085.72 1256.94ZM3225.48 1404.42 3232.07 1434.46 3204.09 1421.7Z"/><path d="M0-2.29167 113.365-2.29167 113.365 1233.03 51.49 1233.03 51.49 1228.45 111.074 1228.45 108.782 1230.74 108.782 0 111.074 2.29167 0 2.29167ZM56.0733 1244.49 28.5733 1230.74 56.0733 1216.99Z" transform="matrix(-1.83697e-16 -1 -1 1.83697e-16 3617.24 1153.07)"/><path d="M2928.79 1036.5 2928.79 1128.48 2924.21 1128.48 2924.21 1036.5ZM2940.25 1123.9 2926.5 1151.4 2912.75 1123.9Z"/><path d="M2917 1041.5C2917 1036.81 2920.81 1033 2925.5 1033 2930.19 1033 2934 1036.81 2934 1041.5 2934 1046.19 2930.19 1050 2925.5 1050 2920.81 1050 2917 1046.19 2917 1041.5Z" fill-rule="evenodd"/><rect x="3943.5" y="1762.5" width="265" height="201" stroke="#4472C4" stroke-width="6.875" stroke-miterlimit="8" fill="#DAE3F3"/><text font-family="DengXian,DengXian_MSFontService,sans-serif" font-weight="700" font-size="55" transform="matrix(1 0 0 1 3973.63 1848)">ROB</text><text font-family="DengXian,DengXian_MSFontService,sans-serif" font-weight="700" font-size="55" transform="matrix(1 0 0 1 4097.95 1848)">full</text><text font-family="DengXian,DengXian_MSFontService,sans-serif" font-weight="700" font-size="55" transform="matrix(1 0 0 1 3979.93 1914)">checker</text><path d="M5.15633 25.7812 5.15661 118.833-5.15589 118.833-5.15617 25.7813ZM-15.4687 30.9375 0 0 15.4688 30.9375Z" fill="#4472C4" transform="matrix(1 0 0 -1 4076 1761.83)"/><rect x="1424.5" y="1434.5" width="229" height="201" stroke="#5B9BD5" stroke-width="6.875" stroke-miterlimit="8" fill="#DEEBF7"/><text font-family="DengXian,DengXian_MSFontService,sans-serif" font-weight="700" font-size="64" transform="matrix(1 0 0 1 1485.66 1556)">SST</text><path d="M1531.84 1433.27 1531.84 1374.78 1542.16 1374.78 1542.16 1433.27ZM1521.53 1379.94 1537 1349 1552.47 1379.94Z" fill="#5B9BD5"/><rect x="1874.5" y="1351.5" width="226" height="80.9998" stroke="#5B9BD5" stroke-width="6.875" stroke-miterlimit="8" fill="#DEEBF7"/><path d="M1991.87 1432 1991.87 1539.25 1678.78 1539.25 1678.78 1528.93 1986.72 1528.93 1981.56 1534.09 1981.56 1432ZM1683.94 1549.56 1653 1534.09 1683.94 1518.62Z" fill="#5B9BD5"/><path d="M0-5.15625 394.604-5.15625 394.604 37.6124 384.292 37.6124 384.292 0 389.448 5.15625 0 5.15625ZM404.917 32.4561 389.448 63.3936 373.979 32.4561Z" fill="#70AD47" transform="matrix(1.83697e-16 1 1 -1.83697e-16 2036 1353)"/><path d="M0 5.15625-72.4985 5.15625-67.3423 0-67.3423 487.327-72.4985 482.171 1173.74 482.171 1173.74 492.483-77.6548 492.483-77.6548-5.15625 0-5.15625ZM1168.58 471.858 1199.52 487.327 1168.58 502.796Z" fill="#70AD47" transform="matrix(-1 0 0 1 3724.52 1255)"/><path d="M3524.99 1205.7C3522.35 1183.58 3535.95 1163.21 3555.37 1160.2 3563.24 1158.98 3571.24 1160.81 3578.09 1165.38 3585.35 1149.79 3602.32 1143.87 3615.99 1152.15 3618.38 1153.59 3620.57 1155.43 3622.5 1157.59 3628.15 1144.67 3641.93 1139.42 3653.26 1145.87 3656.4 1147.65 3659.14 1150.23 3661.26 1153.41 3670.37 1141.19 3686.48 1139.68 3697.23 1150.04 3701.75 1154.39 3704.8 1160.4 3705.85 1167.02 3720.78 1171.67 3729.59 1189.25 3725.52 1206.29 3725.18 1207.73 3724.75 1209.13 3724.24 1210.49 3736.22 1228.26 3733.28 1253.71 3717.69 1267.35 3712.84 1271.6 3707.1 1274.35 3701.05 1275.34 3700.91 1294.45 3687.19 1309.81 3670.41 1309.66 3664.8 1309.61 3659.31 1307.79 3654.55 1304.41 3648.87 1325.83 3629.07 1337.94 3610.31 1331.46 3602.45 1328.74 3595.66 1322.99 3591.1 1315.19 3571.9 1328.38 3546.97 1321.29 3535.43 1299.34 3535.29 1299.06 3535.14 1298.78 3535 1298.5 3522.44 1300.18 3511.05 1289.96 3509.58 1275.69 3508.79 1268.08 3511 1260.46 3515.61 1254.86 3504.73 1247.57 3501.07 1231.55 3507.44 1219.09 3511.12 1211.9 3517.57 1207.15 3524.8 1206.29Z" stroke="#000000" stroke-width="4.58333" stroke-miterlimit="8" fill="none" fill-rule="evenodd"/><path d="M3529.16 1257.63C3524.51 1258.04 3519.87 1256.82 3515.85 1254.13M3540.9 1295.99C3539.04 1296.84 3537.08 1297.4 3535.08 1297.67M3591.09 1314.42C3589.68 1312.02 3588.5 1309.46 3587.58 1306.77M3655.98 1295.34C3655.77 1298.19 3655.3 1301 3654.57 1303.74M3683.84 1243.46C3694.37 1249.29 3701.01 1261.5 3700.92 1274.84M3724.13 1210.03C3722.43 1214.57 3719.82 1218.6 3716.53 1221.8M3705.88 1166.36C3706.17 1168.2 3706.3 1170.06 3706.28 1171.92M3657.29 1159.88C3658.29 1157.32 3659.6 1154.93 3661.19 1152.79M3620.84 1163.26C3621.25 1161.14 3621.88 1159.09 3622.73 1157.15M3578.06 1165.34C3580.54 1166.99 3582.84 1168.98 3584.9 1171.27M3526.19 1211.94C3525.64 1209.9 3525.25 1207.82 3524.99 1205.7" stroke="#000000" stroke-width="4.58333" stroke-miterlimit="8" fill="none" fill-rule="evenodd"/><path d="M5.15625-3.21372e-06 5.15659 553.252-5.15591 553.252-5.15625 3.21372e-06ZM15.4691 548.096 0.000360892 579.033-15.4684 548.096Z" fill="#70AD47" transform="matrix(1 0 0 -1 2225 1639.03)"/><rect x="1807.5" y="1808.5" width="227" height="227" stroke="#ED7D31" stroke-width="6.875" stroke-miterlimit="8" fill="#FBE5D6"/><text font-family="DengXian,DengXian_MSFontService,sans-serif" font-weight="700" font-size="55" transform="matrix(1 0 0 1 1826.45 1906)">rename</text><text font-family="DengXian,DengXian_MSFontService,sans-serif" font-weight="700" font-size="55" transform="matrix(1 0 0 1 1851.09 1972)">map''</text><rect x="2073.5" y="1902.5" width="284" height="134" stroke="#ED7D31" stroke-width="6.875" stroke-miterlimit="8" fill="#FBE5D6"/><text font-family="DengXian,DengXian_MSFontService,sans-serif" font-weight="700" font-size="55" transform="matrix(1 0 0 1 2107.72 1987)">free</text><text font-family="DengXian,DengXian_MSFontService,sans-serif" font-weight="700" font-size="55" transform="matrix(1 0 0 1 2220.58 1987)">list''</text><rect x="744.5" y="630.5" width="206" height="102" stroke="#ED7D31" stroke-width="6.875" stroke-miterlimit="8" fill="#FBE5D6"/><text font-family="DengXian,DengXian_MSFontService,sans-serif" font-weight="700" font-size="55" transform="matrix(1 0 0 1 771.523 699)">ghist''</text><rect x="981.5" y="630.5" width="206" height="102" stroke="#ED7D31" stroke-width="6.875" stroke-miterlimit="8" fill="#FBE5D6"/><text font-family="DengXian,DengXian_MSFontService,sans-serif" font-weight="700" font-size="55" transform="matrix(1 0 0 1 1018.65 699)">RAT''</text><path d="M17.2852 19.8111 53.7718 83.5334 44.8225 88.6577 8.33596 24.9353ZM1.9488 34.5342 0 0 28.7967 19.1615ZM60.159 73.9345 62.1078 108.469 33.3111 89.3072Z" fill="#ED7D31" transform="matrix(-1 0 0 1 1084.11 732)"/><path d="M864.553 751.574 902.405 815.648 893.526 820.894 855.674 756.82ZM849.418 766.504 847 732 876.054 750.768ZM908.661 805.964 911.079 840.468 882.025 821.7Z" fill="#ED7D31"/><path d="M5.15627 25.7813 5.15659 429.204-5.15591 429.204-5.15623 25.7813ZM-15.4687 30.9375 0 0 15.4688 30.9375ZM15.4691 424.047 0.000360892 454.985-15.4684 424.047Z" fill="#ED7D31" transform="matrix(-1 0 0 1 1943 1353)"/><path d="M2150.16 1085.78 2150.16 1876.53 2139.84 1876.53 2139.84 1085.78ZM2129.53 1090.94 2145 1060 2160.47 1090.94ZM2160.47 1871.37 2145 1902.31 2129.53 1871.37Z" fill="#ED7D31"/><rect x="2099.5" y="1636.5" width="426" height="212" stroke="#70AD47" stroke-width="6.875" stroke-miterlimit="8" fill="#E2F0D9"/><text font-family="DengXian,DengXian_MSFontService,sans-serif" font-weight="700" font-size="64" transform="matrix(1 0 0 1 2226.18 1763)">PRDQ</text><text font-family="DengXian,DengXian_MSFontService,sans-serif" font-weight="700" font-size="55" transform="matrix(1 0 0 1 2101.08 1498)">last_producer</text><path d="M2139.47 1392.11 2144.76 1392.49 2149.47 1394.75 2153.69 1397.34 2157.67 1400.38 2161.37 1403.84 2164.78 1407.69 2167.86 1411.93 2170.58 1416.52 2172.92 1421.45 2174.84 1426.7 2176.31 1432.24 2177.42 1439.06 2177.79 1445.88 2173.21 1446.12 2172.85 1439.43 2172.88 1439.68 2171.81 1433.09 2171.85 1433.31 2170.43 1427.98 2170.5 1428.17 2168.65 1423.13 2168.73 1423.32 2166.49 1418.58 2166.58 1418.77 2163.97 1414.36 2164.09 1414.54 2161.14 1410.48 2161.27 1410.65 2158.01 1406.95 2158.17 1407.11 2154.62 1403.81 2154.8 1403.95 2151 1401.06 2151.19 1401.19 2147.17 1398.72 2147.38 1398.83 2143.17 1396.81 2144 1397.03 2139.15 1396.68ZM2143.13 1408.38 2116.43 1393.14 2144.64 1380.92Z"/><path d="M2100.5 1235.21 2251.02 1235.21 2251.02 1239.79 2100.5 1239.79ZM2246.44 1223.75 2273.94 1237.5 2246.44 1251.25Z"/><rect x="2044.5" y="926.5" width="284" height="134" stroke="#000000" stroke-width="4.58333" stroke-miterlimit="8" fill="none"/><text font-family="DengXian,DengXian_MSFontService,sans-serif" font-weight="400" font-size="55" transform="matrix(1 0 0 1 2101.3 1011)">free</text><text font-family="DengXian,DengXian_MSFontService,sans-serif" font-weight="400" font-size="55" transform="matrix(1 0 0 1 2207.29 1011)">list</text><rect x="1873.5" y="1124.5" width="227" height="227" stroke="#000000" stroke-width="4.58333" stroke-miterlimit="8" fill="#FFFFFF"/><text font-family="DengXian,DengXian_MSFontService,sans-serif" font-weight="400" font-size="55" transform="matrix(1 0 0 1 1896.66 1222)">rename</text><text font-family="DengXian,DengXian_MSFontService,sans-serif" font-weight="400" font-size="55" transform="matrix(1 0 0 1 1933.6 1288)">map</text></g></svg>